<?xml version="1.0" encoding="utf-8"?>
<svg viewBox="0 0 1000 666.66669" xmlns="http://www.w3.org/2000/svg">
  <defs>
    <clipPath clipPathUnits="userSpaceOnUse" id="clipPath18">
      <path d="M 0,500 H 750 V 0 H 0 Z" id="path16"/>
    </clipPath>
  </defs>
  <g id="g8" transform="matrix(1.3333332538604736, 0, 0, -1.3333332538604736, 0, 666.6666870117188)">
    <g id="g12">
      <g id="g14" clip-path="url(#clipPath18)" style="">
        <g id="g20" transform="translate(694.853,270.6553)" style="">
          <path d="m 0,0 c -0.108,-17.013 -2.414,-34.275 3.721,-50.452 2.866,-7.556 7.5,-14.298 11.065,-21.55 12.284,-24.986 10.774,-56.24 -3.862,-79.926 -22.909,-37.074 -64.49,-42.165 -104.25,-35.703 -65.851,10.704 -126.735,36.925 -194.086,38.746 -69.227,1.871 -138.122,-8.677 -205.335,-24.549 -35.677,-8.426 -76.309,-16.562 -112.094,-4.653 -23.472,7.812 -35.813,29.962 -26.33,53.633 4.459,11.131 12.228,20.556 19.736,29.905 17.652,21.978 23.76,47.545 21.121,75.298 -1.215,12.777 -4.584,25.077 -6.236,37.774 -2.628,20.201 -4.224,43.848 8.713,61.12 6.149,8.208 15.121,13.979 24.681,17.692 22.117,8.591 47.006,9.35 69.664,2.51 29.5,-8.905 51.614,-30.988 71.12,-53.853 4.683,-5.49 9.327,-11.014 14.158,-16.375 20.825,-23.113 45.097,-44.625 74.781,-53.939 20.73,-6.504 42.464,-9.391 63.254,-3.03 18.486,5.655 36.093,13.809 53.633,21.936 19.525,9.048 39.05,18.095 58.575,27.143 12.389,5.74 24.798,11.49 37.66,16.073 19.058,6.791 39.081,10.984 59.288,12.135 17.13,0.975 37.344,2.157 50.207,-11.32 C -0.89,28.215 0.087,13.651 0,0" style="fill:#e7edfa;fill-opacity:1;fill-rule:nonzero;stroke:none" id="path22"/>
        </g>
        <g id="g24" transform="translate(556.883,394.9131)" style="">
          <path d="M 0,0 H 27.896" style="fill:none;stroke:#99b4ed;stroke-width:1.5;stroke-linecap:butt;stroke-linejoin:round;stroke-miterlimit:10;stroke-dasharray:none;stroke-opacity:1" id="path26"/>
        </g>
        <g id="g28" transform="translate(590.6232,394.9131)">
          <path d="M 0,0 H 12.438" style="fill:none;stroke:#99b4ed;stroke-width:1.5;stroke-linecap:butt;stroke-linejoin:round;stroke-miterlimit:10;stroke-dasharray:none;stroke-opacity:1" id="path30"/>
        </g>
        <g id="g32" transform="translate(360.1999,217.9536)">
          <path d="M 0,0 H 11.439" style="fill:none;stroke:#99b4ed;stroke-width:1.5;stroke-linecap:butt;stroke-linejoin:round;stroke-miterlimit:10;stroke-dasharray:none;stroke-opacity:1" id="path34"/>
        </g>
        <g id="g36" transform="translate(378.228,217.9536)">
          <path d="M 0,0 H 22.098" style="fill:none;stroke:#99b4ed;stroke-width:1.5;stroke-linecap:butt;stroke-linejoin:round;stroke-miterlimit:10;stroke-dasharray:none;stroke-opacity:1" id="path38"/>
        </g>
        <g id="g40" transform="translate(283.7079,253.6195)">
          <path d="m 0,0 c 0,-2.195 -1.78,-3.975 -3.975,-3.975 -2.195,0 -3.975,1.78 -3.975,3.975 0,2.195 1.78,3.975 3.975,3.975 C -1.78,3.975 0,2.195 0,0 Z" style="fill:none;stroke:#99b4ed;stroke-width:1.5;stroke-linecap:butt;stroke-linejoin:round;stroke-miterlimit:10;stroke-dasharray:none;stroke-opacity:1" id="path42"/>
        </g>
        <g id="g44" transform="translate(374.2789,159.4977)">
          <path d="m 0,0 c 0,-2.195 -1.78,-3.975 -3.975,-3.975 -2.195,0 -3.975,1.78 -3.975,3.975 0,2.195 1.78,3.975 3.975,3.975 C -1.78,3.975 0,2.195 0,0 Z" style="fill:none;stroke:#99b4ed;stroke-width:1.5;stroke-linecap:butt;stroke-linejoin:round;stroke-miterlimit:10;stroke-dasharray:none;stroke-opacity:1" id="path46"/>
        </g>
        <g id="g48" transform="translate(709.3086,158.984)">
          <path d="m 0,0 c 0,-2.195 -1.78,-3.975 -3.975,-3.975 -2.195,0 -3.975,1.78 -3.975,3.975 0,2.195 1.78,3.975 3.975,3.975 C -1.78,3.975 0,2.195 0,0 Z" style="fill:none;stroke:#99b4ed;stroke-width:1.5;stroke-linecap:butt;stroke-linejoin:round;stroke-miterlimit:10;stroke-dasharray:none;stroke-opacity:1" id="path50"/>
        </g>
        <g id="g52" transform="translate(592.1988,440.6559)">
          <path d="m 0,0 c 0,-4.098 -3.322,-7.42 -7.42,-7.42 -4.097,0 -7.419,3.322 -7.419,7.42 0,4.098 3.322,7.42 7.419,7.42 C -3.322,7.42 0,4.098 0,0 Z" style="fill:none;stroke:#99b4ed;stroke-width:1.5;stroke-linecap:butt;stroke-linejoin:round;stroke-miterlimit:10;stroke-dasharray:none;stroke-opacity:1" id="path54"/>
        </g>
        <g id="g56" transform="translate(187.8089,406.5137)">
          <path d="m 0,0 c 0,-4.098 -3.322,-7.42 -7.42,-7.42 -4.098,0 -7.419,3.322 -7.419,7.42 0,4.098 3.321,7.42 7.419,7.42 C -3.322,7.42 0,4.098 0,0 Z" style="fill:none;stroke:#99b4ed;stroke-width:1.5;stroke-linecap:butt;stroke-linejoin:round;stroke-miterlimit:10;stroke-dasharray:none;stroke-opacity:1" id="path58"/>
        </g>
        <g id="g60" transform="translate(492.5751,419.2257)">
          <path d="m 0,0 v -11.162 l 9.416,6.026 z" style="fill:none;stroke:#99b4ed;stroke-width:1.5;stroke-linecap:butt;stroke-linejoin:round;stroke-miterlimit:10;stroke-dasharray:none;stroke-opacity:1" id="path62"/>
        </g>
        <g id="g64" transform="translate(664.7297,304.997)">
          <path d="m 0,0 v -11.162 l -9.416,6.026 z" style="fill:none;stroke:#99b4ed;stroke-width:1.5;stroke-linecap:butt;stroke-linejoin:round;stroke-miterlimit:10;stroke-dasharray:none;stroke-opacity:1" id="path66"/>
        </g>
        <g id="g68" transform="translate(56.5156,225.6466)">
          <path d="M 0,0 4.343,-10.283 -6.676,-8.395 Z" style="fill:none;stroke:#99b4ed;stroke-width:1.5;stroke-linecap:butt;stroke-linejoin:round;stroke-miterlimit:10;stroke-dasharray:none;stroke-opacity:1" id="path70"/>
        </g>
        <g id="g72" transform="translate(178.0822,83.6632)">
          <path d="m 0,0 -10.086,-4.783 9.48,-5.926 z" style="fill:none;stroke:#99b4ed;stroke-width:1.5;stroke-linecap:butt;stroke-linejoin:round;stroke-miterlimit:10;stroke-dasharray:none;stroke-opacity:1" id="path74"/>
        </g>
        <g id="g76" transform="translate(84.0569,382.8221)">
          <path d="m 0,0 h 58.675 c 1.218,0 1.746,1.543 0.782,2.288 l -9.426,7.289 v 8.621 c 0,10.05 -8.148,18.198 -18.198,18.198 H 0 c -10.05,0 -18.198,-8.148 -18.198,-18.198 C -18.198,8.147 -10.05,0 0,0" style="fill:#ffd28a;fill-opacity:1;fill-rule:nonzero;stroke:none" id="path78"/>
        </g>
        <g id="g80" transform="translate(119.3625,401.02)">
          <path d="m 0,0 c 0,-1.325 1.074,-2.398 2.398,-2.398 1.325,0 2.399,1.073 2.399,2.398 0,1.325 -1.074,2.398 -2.399,2.398 C 1.074,2.398 0,1.325 0,0" style="fill:#ffffff;fill-opacity:1;fill-rule:nonzero;stroke:none" id="path82"/>
        </g>
        <g id="g84" transform="translate(100.1387,401.02)">
          <path d="m 0,0 c 0,-1.325 1.074,-2.398 2.398,-2.398 1.325,0 2.399,1.073 2.399,2.398 0,1.325 -1.074,2.398 -2.399,2.398 C 1.074,2.398 0,1.325 0,0" style="fill:#ffffff;fill-opacity:1;fill-rule:nonzero;stroke:none" id="path86"/>
        </g>
        <g id="g88" transform="translate(80.915,401.02)">
          <path d="m 0,0 c 0,-1.325 1.074,-2.398 2.398,-2.398 1.325,0 2.399,1.073 2.399,2.398 0,1.325 -1.074,2.398 -2.399,2.398 C 1.074,2.398 0,1.325 0,0" style="fill:#ffffff;fill-opacity:1;fill-rule:nonzero;stroke:none" id="path90"/>
        </g>
        <g id="g92" transform="translate(271.0763,381.2824)">
          <path d="m 0,0 h -71.162 c -1.828,0 -2.618,2.315 -1.172,3.433 l 14.139,10.933 v 12.933 c 0,15.076 12.222,27.298 27.299,27.298 H 0 c 15.077,0 27.298,-12.222 27.298,-27.298 C 27.298,12.222 15.077,0 0,0" style="fill:#eef2f9;fill-opacity:1;fill-rule:nonzero;stroke:none" id="path94"/>
        </g>
        <g id="g96" transform="translate(235.658,404.7075)">
          <path d="m 0,0 c 0,-1.006 -0.246,-1.873 -0.738,-2.601 -0.491,-0.728 -1.197,-1.286 -2.114,-1.673 -0.916,-0.387 -2.011,-0.58 -3.28,-0.58 -0.621,0 -1.213,0.035 -1.778,0.104 -0.565,0.07 -1.097,0.172 -1.597,0.308 -0.498,0.135 -0.957,0.3 -1.375,0.494 v 2.624 c 0.696,-0.301 1.471,-0.574 2.323,-0.818 0.851,-0.245 1.718,-0.366 2.601,-0.366 0.719,0 1.316,0.094 1.788,0.284 0.472,0.19 0.826,0.461 1.063,0.813 0.236,0.352 0.354,0.765 0.354,1.237 0,0.503 -0.136,0.927 -0.407,1.272 -0.271,0.344 -0.679,0.664 -1.225,0.958 -0.546,0.294 -1.232,0.608 -2.061,0.941 -0.557,0.216 -1.088,0.468 -1.59,0.754 -0.504,0.287 -0.953,0.624 -1.348,1.011 -0.395,0.387 -0.708,0.848 -0.941,1.382 -0.233,0.534 -0.349,1.157 -0.349,1.87 0,0.96 0.233,1.783 0.698,2.467 0.464,0.686 1.116,1.21 1.956,1.574 0.84,0.364 1.821,0.546 2.945,0.546 0.89,0 1.727,-0.095 2.514,-0.284 0.786,-0.19 1.558,-0.452 2.317,-0.784 L -1.127,9.279 c -0.704,0.287 -1.382,0.518 -2.033,0.691 -0.649,0.175 -1.316,0.262 -1.997,0.262 -0.588,0 -1.088,-0.089 -1.498,-0.267 C -7.066,9.786 -7.377,9.535 -7.59,9.21 -7.804,8.885 -7.91,8.505 -7.91,8.072 -7.91,7.568 -7.787,7.15 -7.544,6.817 -7.3,6.484 -6.92,6.179 -6.405,5.9 -5.891,5.621 -5.226,5.312 -4.414,4.971 -3.477,4.584 -2.682,4.177 -2.027,3.751 -1.372,3.325 -0.871,2.817 -0.523,2.225 -0.174,1.632 0,0.89 0,0" style="fill:#99b4ed;fill-opacity:1;fill-rule:nonzero;stroke:none" id="path98"/>
        </g>
        <g id="g100" transform="translate(241.3828,418.1562)">
          <path d="m 0,0 v -8.733 c 0,-0.395 -0.016,-0.827 -0.046,-1.295 -0.032,-0.468 -0.063,-0.908 -0.094,-1.319 h 0.058 c 0.202,0.271 0.444,0.589 0.726,0.953 0.283,0.364 0.551,0.681 0.807,0.952 l 3.927,4.228 h 3.135 l -5.145,-5.528 5.481,-7.329 H 5.644 L 1.533,-12.426 0,-13.75 v -4.321 H -2.74 V 0 Z" style="fill:#99b4ed;fill-opacity:1;fill-rule:nonzero;stroke:none" id="path102"/>
        </g>
        <path d="m 255.006,400.085 h -2.74 v 12.857 h 2.74 z m -1.347,17.781 c 0.418,0 0.78,-0.112 1.086,-0.337 0.305,-0.224 0.459,-0.612 0.459,-1.161 0,-0.542 -0.154,-0.929 -0.459,-1.161 -0.306,-0.232 -0.668,-0.349 -1.086,-0.349 -0.433,0 -0.801,0.117 -1.103,0.349 -0.302,0.232 -0.453,0.619 -0.453,1.161 0,0.549 0.151,0.937 0.453,1.161 0.302,0.225 0.67,0.337 1.103,0.337" style="fill:#99b4ed;fill-opacity:1;fill-rule:nonzero;stroke:none" id="path104"/>
        <path d="m 261.649,400.085 h -2.751 v 18.071 h 2.751 z" style="fill:#99b4ed;fill-opacity:1;fill-rule:nonzero;stroke:none" id="path106"/>
        <path d="m 268.28,400.085 h -2.751 v 18.071 h 2.751 z" style="fill:#99b4ed;fill-opacity:1;fill-rule:nonzero;stroke:none" id="path108"/>
        <g id="g110" transform="translate(280.8121,403.7551)">
          <path d="m 0,0 c 0,-0.844 -0.206,-1.556 -0.615,-2.137 -0.412,-0.58 -1.009,-1.02 -1.795,-1.317 -0.785,-0.299 -1.748,-0.448 -2.886,-0.448 -0.899,0 -1.67,0.064 -2.317,0.191 -0.647,0.129 -1.259,0.324 -1.841,0.587 v 2.358 c 0.62,-0.287 1.31,-0.535 2.074,-0.744 0.762,-0.209 1.484,-0.313 2.166,-0.313 0.89,0 1.534,0.141 1.933,0.423 0.399,0.284 0.598,0.661 0.598,1.133 0,0.279 -0.079,0.528 -0.239,0.749 -0.157,0.221 -0.452,0.449 -0.882,0.686 -0.429,0.236 -1.062,0.516 -1.899,0.841 -0.813,0.326 -1.498,0.653 -2.056,0.982 -0.557,0.329 -0.979,0.722 -1.264,1.178 -0.288,0.457 -0.431,1.046 -0.431,1.766 0,1.146 0.454,2.015 1.359,2.607 0.905,0.592 2.102,0.889 3.589,0.889 0.789,0 1.534,-0.08 2.235,-0.239 C -1.57,9.034 -0.882,8.804 -0.21,8.501 L -1.069,6.446 c -0.58,0.247 -1.162,0.454 -1.748,0.621 -0.584,0.167 -1.179,0.25 -1.782,0.25 -0.705,0 -1.242,-0.108 -1.609,-0.325 -0.368,-0.217 -0.551,-0.523 -0.551,-0.918 0,-0.302 0.088,-0.557 0.266,-0.767 C -6.314,5.099 -6.007,4.89 -5.57,4.681 -5.131,4.472 -4.521,4.212 -3.74,3.903 -2.973,3.608 -2.309,3.3 -1.748,2.979 -1.187,2.658 -0.756,2.265 -0.453,1.801 -0.151,1.336 0,0.736 0,0" style="fill:#99b4ed;fill-opacity:1;fill-rule:nonzero;stroke:none" id="path112"/>
        </g>
        <g id="g114" transform="translate(644.8023,338.6464)">
          <path d="m 0,0 h -80.022 c -1.473,0 -2.109,1.865 -0.945,2.765 l 11.389,8.806 v 10.416 c 0,12.144 9.844,21.988 21.987,21.988 H 0 c 12.143,0 21.987,-9.844 21.987,-21.988 C 21.987,9.844 12.143,0 0,0" style="fill:#fff8dc;fill-opacity:1;fill-rule:nonzero;stroke:none" id="path116"/>
        </g>
        <g id="g118" transform="translate(595.4146,361.8126)">
          <path d="m 0,0 h 6.908 v -9.304 c -0.972,-0.321 -1.975,-0.57 -3.01,-0.748 -1.035,-0.178 -2.204,-0.266 -3.505,-0.266 -1.884,0 -3.477,0.374 -4.779,1.121 -1.302,0.749 -2.29,1.832 -2.966,3.252 -0.676,1.42 -1.014,3.139 -1.014,5.159 0,1.935 0.376,3.614 1.128,5.039 0.752,1.424 1.846,2.527 3.283,3.308 1.437,0.781 3.178,1.173 5.223,1.173 1.005,0 1.979,-0.102 2.921,-0.305 C 5.132,8.227 5.995,7.956 6.782,7.618 L 5.704,5.108 C 5.078,5.395 4.38,5.64 3.606,5.843 2.833,6.046 2.028,6.147 1.191,6.147 -0.136,6.147 -1.278,5.86 -2.237,5.286 -3.196,4.711 -3.934,3.904 -4.449,2.865 c -0.516,-1.04 -0.774,-2.27 -0.774,-3.689 0,-1.378 0.207,-2.586 0.622,-3.626 0.414,-1.039 1.062,-1.848 1.945,-2.427 0.884,-0.579 2.026,-0.868 3.429,-0.868 0.693,0 1.287,0.038 1.781,0.114 0.495,0.076 0.949,0.16 1.363,0.254 v 4.765 l -3.917,0 z" style="fill:#ffd28a;fill-opacity:1;fill-rule:nonzero;stroke:none" id="path120"/>
        </g>
        <g id="g122" transform="translate(608.7115,358.796)">
          <path d="m 0,0 c 0,-1.023 0.125,-1.898 0.374,-2.624 0.249,-0.727 0.636,-1.283 1.16,-1.668 0.524,-0.383 1.2,-0.576 2.027,-0.576 0.821,0 1.492,0.193 2.016,0.576 0.524,0.385 0.911,0.941 1.16,1.668 0.25,0.726 0.374,1.601 0.374,2.624 0,1.014 -0.124,1.878 -0.374,2.592 C 6.488,3.306 6.101,3.851 5.577,4.227 5.053,4.603 4.377,4.791 3.549,4.791 2.315,4.791 1.415,4.377 0.85,3.549 0.283,2.72 0,1.537 0,0 m 10.178,0 c 0,-1.166 -0.151,-2.202 -0.456,-3.106 C 9.418,-4.01 8.974,-4.775 8.391,-5.4 7.808,-6.026 7.107,-6.499 6.287,-6.82 5.468,-7.141 4.542,-7.301 3.511,-7.301 c -0.963,0 -1.847,0.16 -2.649,0.481 -0.803,0.321 -1.498,0.794 -2.085,1.42 -0.588,0.625 -1.042,1.39 -1.363,2.294 -0.321,0.904 -0.481,1.94 -0.481,3.106 0,1.546 0.268,2.858 0.805,3.935 0.536,1.078 1.303,1.9 2.3,2.466 C 1.035,6.967 2.223,7.25 3.6,7.25 4.893,7.25 6.033,6.967 7.023,6.401 8.011,5.835 8.784,5.01 9.342,3.929 9.9,2.848 10.178,1.537 10.178,0" style="fill:#ffd28a;fill-opacity:1;fill-rule:nonzero;stroke:none" id="path124"/>
        </g>
        <g id="g126" transform="translate(630.2352,358.4533)">
          <path d="m 0,0 -1.8,-0.076 c -1.488,-0.05 -2.531,-0.302 -3.131,-0.754 -0.6,-0.452 -0.9,-1.076 -0.9,-1.87 0,-0.693 0.207,-1.197 0.621,-1.515 0.414,-0.316 0.959,-0.475 1.635,-0.475 1.032,0 1.885,0.293 2.561,0.881 C -0.338,-3.221 0,-2.362 0,-1.229 Z M -2.421,7.593 C -0.646,7.593 0.695,7.2 1.603,6.414 2.512,5.628 2.966,4.403 2.966,2.738 V -6.705 H 0.849 l -0.583,1.99 H 0.164 c -0.396,-0.508 -0.806,-0.928 -1.229,-1.261 -0.423,-0.335 -0.908,-0.582 -1.457,-0.742 -0.55,-0.161 -1.222,-0.241 -2.016,-0.241 -0.845,0 -1.597,0.154 -2.257,0.462 -0.659,0.31 -1.176,0.78 -1.552,1.414 -0.376,0.634 -0.564,1.436 -0.564,2.409 0,1.445 0.539,2.53 1.616,3.257 1.077,0.727 2.706,1.129 4.886,1.204 l 2.422,0.089 v 0.735 c 0,0.964 -0.224,1.653 -0.672,2.066 -0.448,0.414 -1.082,0.621 -1.901,0.621 -0.702,0 -1.382,-0.101 -2.041,-0.304 C -5.26,4.792 -5.903,4.546 -6.529,4.259 l -0.975,2.104 c 0.693,0.363 1.477,0.66 2.351,0.888 0.875,0.228 1.785,0.342 2.732,0.342" style="fill:#ffd28a;fill-opacity:1;fill-rule:nonzero;stroke:none" id="path128"/>
        </g>
        <path d="m 640.362,351.748 h -3.004 v 19.724 h 3.004 z" style="fill:#ffd28a;fill-opacity:1;fill-rule:nonzero;stroke:none" id="path130"/>
        <g id="g132" transform="translate(654.0399,355.7532)">
          <path d="m 0,0 c 0,-0.921 -0.224,-1.698 -0.672,-2.332 -0.448,-0.633 -1.1,-1.113 -1.958,-1.438 -0.857,-0.326 -1.907,-0.489 -3.15,-0.489 -0.98,0 -1.823,0.07 -2.528,0.209 -0.707,0.14 -1.376,0.353 -2.01,0.641 v 2.573 c 0.676,-0.314 1.43,-0.584 2.263,-0.812 0.832,-0.228 1.62,-0.342 2.364,-0.342 0.972,0 1.675,0.154 2.11,0.463 0.435,0.308 0.653,0.72 0.653,1.235 0,0.305 -0.087,0.577 -0.26,0.818 -0.173,0.241 -0.494,0.49 -0.963,0.748 -0.469,0.257 -1.16,0.564 -2.073,0.919 -0.887,0.355 -1.635,0.712 -2.244,1.071 -0.607,0.36 -1.068,0.788 -1.381,1.287 -0.313,0.498 -0.469,1.14 -0.469,1.927 0,1.25 0.495,2.199 1.483,2.845 0.989,0.646 2.295,0.97 3.917,0.97 0.862,0 1.675,-0.087 2.44,-0.259 0.765,-0.174 1.515,-0.426 2.25,-0.755 L -1.166,7.035 C -1.8,7.305 -2.436,7.531 -3.074,7.713 -3.712,7.895 -4.361,7.986 -5.02,7.986 -5.789,7.986 -6.374,7.867 -6.775,7.631 -7.177,7.394 -7.377,7.06 -7.377,6.629 -7.377,6.3 -7.28,6.022 -7.086,5.793 -6.891,5.565 -6.555,5.337 -6.078,5.109 -5.601,4.881 -4.935,4.597 -4.081,4.259 -3.245,3.938 -2.52,3.602 -1.908,3.251 -1.295,2.9 -0.823,2.472 -0.494,1.965 -0.164,1.458 0,0.803 0,0" style="fill:#ffd28a;fill-opacity:1;fill-rule:nonzero;stroke:none" id="path134"/>
        </g>
        <g id="g136" transform="translate(329.8096,306.8657)">
          <path d="m 0,0 h -93.198 c -1.935,0 -2.773,2.451 -1.242,3.635 l 14.972,11.577 v 13.693 c 0,15.964 12.942,28.905 28.905,28.905 H 0 C 15.964,57.81 28.905,44.869 28.905,28.905 28.905,12.941 15.964,0 0,0" style="fill:#ffac76;fill-opacity:1;fill-rule:nonzero;stroke:none" id="path138"/>
        </g>
        <g id="g140" transform="translate(289.4586,343.8229)">
          <path d="M 0,0 V 11.075 H 2.348 V 1.939 H 6.841 V 0 Z" style="fill:#ffffff;fill-opacity:1;fill-rule:nonzero;stroke:none" id="path142"/>
        </g>
        <path d="m 298.844,354.898 h 2.349 v -11.075 h -2.349 z" style="fill: rgb(255, 255, 255); fill-opacity: 1; fill-rule: nonzero; stroke: none;" id="path144"/>
        <g id="g146" transform="translate(306.9104,343.8229)">
          <path d="M 0,0 H -2.31 V 11.075 H 4.038 V 9.151 H 0 V 6.295 H 3.757 V 4.378 H 0 Z" style="fill:#ffffff;fill-opacity:1;fill-rule:nonzero;stroke:none" id="path148"/>
        </g>
        <g id="g150" transform="translate(320.1141,343.8229)">
          <path d="M 0,0 H -6.378 V 11.075 H 0 V 9.151 H -4.03 V 6.719 h 3.75 V 4.795 H -4.03 V 1.939 H 0 Z" style="fill:#ffffff;fill-opacity:1;fill-rule:nonzero;stroke:none" id="path152"/>
        </g>
        <g id="g154" transform="translate(267.0455,332.7252)">
          <path d="M 0,0 C -0.449,0 -0.848,-0.087 -1.193,-0.261 -1.539,-0.435 -1.83,-0.686 -2.065,-1.015 -2.299,-1.343 -2.477,-1.74 -2.599,-2.204 -2.72,-2.669 -2.781,-3.192 -2.781,-3.772 c 0,-0.783 0.097,-1.451 0.293,-2.004 0.194,-0.553 0.495,-0.975 0.905,-1.265 0.408,-0.29 0.936,-0.436 1.583,-0.436 0.449,0 0.9,0.051 1.352,0.152 0.452,0.101 0.943,0.245 1.474,0.432 v -1.97 C 2.335,-9.065 1.853,-9.21 1.378,-9.298 0.903,-9.387 0.371,-9.431 -0.22,-9.431 c -1.142,0 -2.079,0.236 -2.814,0.708 -0.736,0.473 -1.279,1.134 -1.632,1.985 -0.355,0.851 -0.532,1.844 -0.532,2.981 0,0.838 0.115,1.606 0.342,2.303 0.227,0.697 0.56,1.3 1,1.81 0.439,0.51 0.982,0.904 1.628,1.182 0.647,0.278 1.389,0.417 2.228,0.417 0.55,0 1.102,-0.07 1.655,-0.209 C 2.207,1.607 2.737,1.417 3.241,1.174 L 2.484,-0.734 C 2.071,-0.538 1.654,-0.366 1.234,-0.22 0.815,-0.073 0.404,0 0,0" style="fill:#ffffff;fill-opacity:1;fill-rule:nonzero;stroke:none" id="path156"/>
        </g>
        <g id="g158" transform="translate(274.8173,328.9982)">
          <path d="m 0,0 c 0,-0.772 0.097,-1.438 0.291,-1.996 0.194,-0.558 0.499,-0.987 0.913,-1.288 0.414,-0.3 0.949,-0.45 1.606,-0.45 0.666,0 1.207,0.15 1.621,0.45 0.414,0.301 0.715,0.73 0.906,1.288 0.188,0.558 0.283,1.224 0.283,1.996 0,1.161 -0.217,2.076 -0.651,2.742 -0.434,0.667 -1.149,1 -2.143,1 -0.662,0 -1.202,-0.15 -1.619,-0.45 C 0.791,2.991 0.485,2.562 0.291,2.004 0.097,1.446 0,0.778 0,0 M 8.082,0 C 8.082,-0.854 7.976,-1.63 7.765,-2.329 7.552,-3.029 7.23,-3.631 6.798,-4.136 6.366,-4.641 5.82,-5.029 5.159,-5.299 4.497,-5.569 3.714,-5.704 2.81,-5.704 c -0.904,0 -1.687,0.135 -2.348,0.405 -0.662,0.27 -1.209,0.658 -1.641,1.163 -0.431,0.505 -0.753,1.109 -0.965,1.81 -0.213,0.702 -0.319,1.483 -0.319,2.341 0,1.146 0.189,2.145 0.565,2.997 0.376,0.85 0.955,1.511 1.739,1.98 0.782,0.47 1.777,0.705 2.985,0.705 1.201,0 2.19,-0.235 2.965,-0.705 C 6.566,4.523 7.142,3.861 7.518,3.007 7.894,2.154 8.082,1.152 8.082,0" style="fill:#ffffff;fill-opacity:1;fill-rule:nonzero;stroke:none" id="path160"/>
        </g>
        <g id="g162" transform="translate(291.2322,328.0512)">
          <path d="M 0,0 -0.803,2.576 C -0.854,2.747 -0.92,2.969 -1.004,3.239 -1.087,3.509 -1.171,3.784 -1.254,4.064 -1.337,4.345 -1.405,4.588 -1.455,4.796 -1.506,4.588 -1.575,4.332 -1.663,4.026 -1.752,3.721 -1.836,3.432 -1.916,3.159 -1.998,2.886 -2.056,2.692 -2.091,2.576 L -2.887,0 Z M 1.363,-4.605 0.56,-1.97 H -3.477 L -4.28,-4.605 h -2.531 l 3.909,11.12 h 2.871 l 3.924,-11.12 z" style="fill:#ffffff;fill-opacity:1;fill-rule:nonzero;stroke:none" id="path164"/>
        </g>
        <g id="g166" transform="translate(301.8439,332.7252)">
          <path d="M 0,0 C -0.449,0 -0.848,-0.087 -1.193,-0.261 -1.54,-0.435 -1.83,-0.686 -2.065,-1.015 -2.3,-1.343 -2.477,-1.74 -2.599,-2.204 -2.72,-2.669 -2.781,-3.192 -2.781,-3.772 c 0,-0.783 0.097,-1.451 0.293,-2.004 0.194,-0.553 0.495,-0.975 0.905,-1.265 0.408,-0.29 0.936,-0.436 1.583,-0.436 0.449,0 0.9,0.051 1.352,0.152 0.452,0.101 0.943,0.245 1.474,0.432 v -1.97 C 2.335,-9.065 1.853,-9.21 1.378,-9.298 0.903,-9.387 0.371,-9.431 -0.22,-9.431 c -1.142,0 -2.08,0.236 -2.814,0.708 -0.736,0.473 -1.279,1.134 -1.632,1.985 -0.355,0.851 -0.532,1.844 -0.532,2.981 0,0.838 0.115,1.606 0.342,2.303 0.227,0.697 0.56,1.3 1,1.81 0.439,0.51 0.982,0.904 1.628,1.182 0.647,0.278 1.389,0.417 2.228,0.417 0.55,0 1.102,-0.07 1.655,-0.209 C 2.207,1.607 2.737,1.417 3.241,1.174 L 2.484,-0.734 C 2.07,-0.538 1.654,-0.366 1.234,-0.22 0.815,-0.073 0.403,0 0,0" style="fill:#ffffff;fill-opacity:1;fill-rule:nonzero;stroke:none" id="path168"/>
        </g>
        <g id="g170" transform="translate(316.7203,323.4457)">
          <path d="M 0,0 H -2.34 V 4.78 H -6.727 V 0 h -2.348 v 11.075 h 2.348 V 6.734 h 4.387 v 4.341 H 0 Z" style="fill:#ffffff;fill-opacity:1;fill-rule:nonzero;stroke:none" id="path172"/>
        </g>
        <path d="m 320.136,334.521 h 2.348 v -11.075 h -2.348 z" style="fill:#ffffff;fill-opacity:1;fill-rule:nonzero;stroke:none" id="path174"/>
        <g id="g176" transform="translate(335.7188,323.4457)">
          <path d="m 0,0 h -2.985 l -4.818,8.378 h -0.068 c 0.02,-0.348 0.038,-0.699 0.053,-1.053 0.015,-0.353 0.03,-0.706 0.045,-1.056 0.015,-0.351 0.031,-0.704 0.046,-1.057 V 0 h -2.099 v 11.075 h 2.962 L -2.053,2.78 H -2 c -0.01,0.343 -0.023,0.684 -0.038,1.023 -0.015,0.338 -0.03,0.676 -0.042,1.015 -0.012,0.338 -0.024,0.677 -0.034,1.015 v 5.242 H 0 Z" style="fill:#ffffff;fill-opacity:1;fill-rule:nonzero;stroke:none" id="path178"/>
        </g>
        <g id="g180" transform="translate(343.3312,329.6647)">
          <path d="M 0,0 H 4.394 V -5.742 C 3.813,-5.934 3.21,-6.086 2.583,-6.2 1.957,-6.314 1.247,-6.371 0.454,-6.371 c -1.101,0 -2.034,0.217 -2.803,0.652 -0.767,0.434 -1.35,1.076 -1.749,1.924 -0.399,0.848 -0.599,1.891 -0.599,3.128 0,1.162 0.224,2.167 0.671,3.016 0.447,0.848 1.1,1.505 1.961,1.969 0.862,0.465 1.914,0.697 3.156,0.697 0.585,0 1.163,-0.063 1.735,-0.189 C 3.397,4.7 3.914,4.535 4.378,4.333 L 3.599,2.455 C 3.26,2.626 2.873,2.77 2.439,2.886 2.005,3.003 1.551,3.06 1.076,3.06 0.394,3.06 -0.198,2.904 -0.701,2.591 -1.203,2.278 -1.592,1.84 -1.867,1.277 -2.142,0.714 -2.28,0.051 -2.28,-0.712 c 0,-0.722 0.098,-1.362 0.295,-1.92 0.197,-0.558 0.508,-0.995 0.932,-1.311 0.425,-0.315 0.977,-0.473 1.659,-0.473 0.334,0 0.615,0.016 0.845,0.049 0.229,0.033 0.446,0.067 0.647,0.102 v 2.311 l -2.098,0 z" style="fill:#ffffff;fill-opacity:1;fill-rule:nonzero;stroke:none" id="path182"/>
        </g>
        <g id="g184" transform="translate(409.0175,305.9836)">
          <path d="m 0,0 h 42.395 c 1.089,0 1.559,1.379 0.698,2.045 l -8.424,6.514 v 7.704 c 0,8.982 -7.281,16.263 -16.263,16.263 H 0 c -8.982,0 -16.263,-7.281 -16.263,-16.263 C -16.263,7.281 -8.982,0 0,0" style="fill:#eef2f9;fill-opacity:1;fill-rule:nonzero;stroke:none" id="path186"/>
        </g>
        <g id="g188" transform="translate(405.9793,322.2467)">
          <path d="m 0,0 c 0,-1.023 -0.829,-1.852 -1.852,-1.852 -1.023,0 -1.852,0.829 -1.852,1.852 0,1.023 0.829,1.852 1.852,1.852 C -0.829,1.852 0,1.023 0,0" style="fill:#99b4ed;fill-opacity:1;fill-rule:nonzero;stroke:none" id="path190"/>
        </g>
        <g id="g192" transform="translate(419.1302,322.2467)">
          <path d="m 0,0 c 0,-1.023 -0.829,-1.852 -1.852,-1.852 -1.023,0 -1.852,0.829 -1.852,1.852 0,1.023 0.829,1.852 1.852,1.852 C -0.829,1.852 0,1.023 0,0" style="fill:#99b4ed;fill-opacity:1;fill-rule:nonzero;stroke:none" id="path194"/>
        </g>
        <g id="g196" transform="translate(432.2811,322.2467)">
          <path d="m 0,0 c 0,-1.023 -0.829,-1.852 -1.852,-1.852 -1.023,0 -1.852,0.829 -1.852,1.852 0,1.023 0.829,1.852 1.852,1.852 C -0.829,1.852 0,1.023 0,0" style="fill:#99b4ed;fill-opacity:1;fill-rule:nonzero;stroke:none" id="path198"/>
        </g>
        <g id="g200" transform="translate(427.5789,371.3668)">
          <path d="m 0,0 h 55.105 c 1.415,0 2.027,1.793 0.908,2.659 l -10.949,8.466 v 10.014 c 0,11.675 -9.465,21.139 -21.139,21.139 H 0 c -11.675,0 -21.139,-9.464 -21.139,-21.139 C -21.139,9.464 -11.675,0 0,0" style="fill:#c1d5f6;fill-opacity:1;fill-rule:nonzero;stroke:none" id="path202"/>
        </g>
        <g id="g204" transform="translate(423.6298,392.5057)">
          <path d="m 0,0 c 0,-1.329 -1.078,-2.407 -2.407,-2.407 -1.33,0 -2.408,1.078 -2.408,2.407 0,1.33 1.078,2.407 2.408,2.407 C -1.078,2.407 0,1.33 0,0" style="fill:#ffffff;fill-opacity:1;fill-rule:nonzero;stroke:none" id="path206"/>
        </g>
        <g id="g208" transform="translate(440.7235,392.5057)">
          <path d="m 0,0 c 0,-1.329 -1.078,-2.407 -2.407,-2.407 -1.33,0 -2.408,1.078 -2.408,2.407 0,1.33 1.078,2.407 2.408,2.407 C -1.078,2.407 0,1.33 0,0" style="fill:#ffffff;fill-opacity:1;fill-rule:nonzero;stroke:none" id="path210"/>
        </g>
        <g id="g212" transform="translate(457.8171,392.5057)">
          <path d="m 0,0 c 0,-1.329 -1.078,-2.407 -2.407,-2.407 -1.33,0 -2.408,1.078 -2.408,2.407 0,1.33 1.078,2.407 2.408,2.407 C -1.078,2.407 0,1.33 0,0" style="fill:#ffffff;fill-opacity:1;fill-rule:nonzero;stroke:none" id="path214"/>
        </g>
        <g id="g216" transform="translate(264.6099,165.2257)">
          <path d="m 0,0 -3.494,18.388 c -1.213,6.384 -6.794,11.005 -13.293,11.005 h -55.326 c -6.527,0 -12.07,-4.78 -13.03,-11.236 L -86.949,6.015 c -1.925,-12.946 8.106,-24.579 21.195,-24.579 h 50.385 C -5.558,-18.564 1.831,-9.638 0,0" style="fill:#ffac76;fill-opacity:1;fill-rule:nonzero;stroke:none" id="path218"/>
        </g>
        <g id="g220" transform="translate(223.4413,146.6618)">
          <path d="m 0,0 h -85.213 c -16.364,0 -30.417,11.634 -33.471,27.71 l -14.681,77.264 c -4.214,22.173 12.787,42.708 35.357,42.708 h 25.712 c 25.663,0 47.702,-18.245 52.492,-43.458 z" style="fill:#ffac76;fill-opacity:1;fill-rule:nonzero;stroke:none" id="path222"/>
        </g>
        <g id="g224" transform="translate(236.4649,160.6492)">
          <path d="m 0,0 h -116.077 c 1.542,-8.115 8.636,-13.987 16.896,-13.987 H 8.887 L 7.392,-6.12 C 6.718,-2.569 3.614,0 0,0" style="fill:#ffac76;fill-opacity:1;fill-rule:nonzero;stroke:none" id="path226"/>
        </g>
        <g id="g228" transform="translate(103.8136,274.4541)">
          <path d="m 0,0 c 7.756,-3.491 13.907,-10.474 18.066,-18.377 4.158,-7.904 6.497,-16.727 8.343,-25.547 2.481,-11.853 4.14,-23.871 5.442,-35.912" style="fill:none;stroke:#eb8447;stroke-width:1;stroke-linecap:butt;stroke-linejoin:miter;stroke-miterlimit:10;stroke-dasharray:none;stroke-opacity:1" id="path230"/>
        </g>
        <path d="M 246.602,135.58 H 132.328 v 11.082 h 114.274 z" style="fill:#773634;fill-opacity:1;fill-rule:nonzero;stroke:none" id="path232"/>
        <g id="g234" transform="translate(143.2761,135.5796)">
          <path d="m 0,0 h -8.408 l -29.136,-93.971 h 4.063 z" style="fill:#773634;fill-opacity:1;fill-rule:nonzero;stroke:none" id="path236"/>
        </g>
        <g id="g238" transform="translate(165.5384,135.5796)">
          <path d="m 0,0 h -8.408 l -21.118,-93.971 h 4.063 z" style="fill:#773634;fill-opacity:1;fill-rule:nonzero;stroke:none" id="path240"/>
        </g>
        <g id="g242" transform="translate(235.8318,135.5796)">
          <path d="M 0,0 H 8.408 L 37.544,-93.971 H 33.481 Z" style="fill:#773634;fill-opacity:1;fill-rule:nonzero;stroke:none" id="path244"/>
        </g>
        <g id="g246" transform="translate(213.5695,135.5796)">
          <path d="M 0,0 H 8.408 L 29.526,-93.971 H 25.463 Z" style="fill:#773634;fill-opacity:1;fill-rule:nonzero;stroke:none" id="path248"/>
        </g>
        <g id="g250" transform="translate(134.8683,135.5796)">
          <path d="M 0,0 H 8.408" style="fill:none;stroke:#461818;stroke-width:1;stroke-linecap:butt;stroke-linejoin:miter;stroke-miterlimit:10;stroke-dasharray:none;stroke-opacity:1" id="path252"/>
        </g>
        <g id="g254" transform="translate(157.1307,135.5796)">
          <path d="M 0,0 H 8.408" style="fill:none;stroke:#461818;stroke-width:1;stroke-linecap:butt;stroke-linejoin:miter;stroke-miterlimit:10;stroke-dasharray:none;stroke-opacity:1" id="path256"/>
        </g>
        <g id="g258" transform="translate(213.5695,135.5796)">
          <path d="M 0,0 H 8.408" style="fill:none;stroke:#461818;stroke-width:1;stroke-linecap:butt;stroke-linejoin:miter;stroke-miterlimit:10;stroke-dasharray:none;stroke-opacity:1" id="path260"/>
        </g>
        <g id="g262" transform="translate(235.8318,135.5796)">
          <path d="M 0,0 H 8.408" style="fill:none;stroke:#461818;stroke-width:1;stroke-linecap:butt;stroke-linejoin:miter;stroke-miterlimit:10;stroke-dasharray:none;stroke-opacity:1" id="path264"/>
        </g>
        <g id="g266" transform="translate(142.4083,322.1009)">
          <path d="m 0,0 -2.378,-20.789 22.516,-26.202 6.93,23.048 -2.536,1.419 -0.86,8.726" style="fill:#ffad85;fill-opacity:1;fill-rule:nonzero;stroke:none" id="path268"/>
        </g>
        <g id="g270" transform="translate(185.1642,283.6289)">
          <path d="m 0,0 -11.857,14.534 -3.831,-0.005 -5.685,-18.907 -23.761,22.061 -18.644,-3.149 35.59,-96.447 52.478,8.435 c 0,0 -16.527,39.83 -17.879,45.09 C 5.059,-23.128 0,0 0,0" style="fill:#ffd28a;fill-opacity:1;fill-rule:nonzero;stroke:none" id="path272"/>
        </g>
        <g id="g274" transform="translate(168.6098,298.9915)">
          <path d="m 0,0 c 3.132,-17.308 7.617,-34.297 12.582,-51.098 5.96,-20.168 17.242,-39.242 17.242,-39.242 l 18.765,-3.9 c 0,0 -15.906,33.425 -19.74,41.625 -3.835,8.2 -4.34,18.59 -8.486,28.733 -4.146,10.143 -9.765,23.049 -9.765,23.049 z" style="fill:#ff673f;fill-opacity:1;fill-rule:nonzero;stroke:none" id="path276"/>
        </g>
        <g id="g278" transform="translate(293.2433,95.3584)">
          <path d="m 0,0 c 0,0 -3.068,11.657 -2.922,19.232 0.034,4.949 -6.827,16.572 -10.351,24.556 l 28.726,10.465 c 0,0 10.421,-13.631 12.571,-16.195 4.147,-4.945 9.317,-8.307 15.571,-9.833 4.528,-1.105 9.235,-1.476 13.761,-2.575 2.322,-0.564 6.392,-1.659 5.42,-5.063 C 53.131,17.607 38.009,12.22 24.486,8.03 23.363,7.682 18.797,10.664 18.797,10.664 l -6.162,1.489 1.959,-7.367 z" style="fill:#49273d;fill-opacity:1;fill-rule:nonzero;stroke:none" id="path280"/>
        </g>
        <g id="g282" transform="translate(305.3763,108.2393)">
          <path d="M 0,0 -14.071,-3.786" style="fill:none;stroke:#000000;stroke-width:1;stroke-linecap:butt;stroke-linejoin:round;stroke-miterlimit:10;stroke-dasharray:none;stroke-opacity:1" id="path284"/>
        </g>
        <g id="g286" transform="translate(258.2929,41.6845)">
          <path d="M 0,0 C 0,0 0.58,12.327 2.948,19.654 4.438,24.461 1.477,37.966 0.55,46.862 l 29.817,1.017 c 0,0 5.682,-16.596 6.927,-19.778 2.403,-6.138 6.224,-11.061 11.594,-14.543 3.889,-2.521 8.16,-4.385 12.048,-6.9 C 62.931,5.368 66.396,3.003 64.489,0 54.634,0.178 38.974,-0.238 25.154,0 24.006,0.02 20.636,4.38 20.636,4.38 L 15.34,7.796 14.992,0 Z" style="fill:#49273d;fill-opacity:1;fill-rule:nonzero;stroke:none" id="path288"/>
        </g>
        <g id="g290" transform="translate(259.0519,50.2491)">
          <path d="M 0,0 14.581,-0.768" style="fill:none;stroke:#000000;stroke-width:1;stroke-linecap:butt;stroke-linejoin:round;stroke-miterlimit:10;stroke-dasharray:none;stroke-opacity:1" id="path292"/>
        </g>
        <g id="g294" transform="translate(225.8059,217.8885)">
          <path d="m 0,0 c 0,0 15.699,4.371 24.973,4.472 9.274,0.102 19.19,-2.895 26.385,-15.832 6.447,-11.592 38.404,-65.591 38.404,-65.591 L 37.431,-108.957 8.335,-26.873" style="fill:#cd4a3f;fill-opacity:1;fill-rule:nonzero;stroke:none" id="path296"/>
        </g>
        <g id="g298" transform="translate(258.9001,193.8199)">
          <path d="M 0,0 C 1.697,0.646 3.498,0.933 5.255,0.836" style="fill:none;stroke:#000000;stroke-width:1;stroke-linecap:butt;stroke-linejoin:round;stroke-miterlimit:10;stroke-dasharray:none;stroke-opacity:1" id="path300"/>
        </g>
        <g id="g302" transform="translate(307.3669,154.8193)">
          <path d="M 0,0 -49.774,-29.966" style="fill:none;stroke:#ec705d;stroke-width:1;stroke-linecap:butt;stroke-linejoin:miter;stroke-miterlimit:10;stroke-dasharray:none;stroke-opacity:1" id="path304"/>
        </g>
        <g id="g306" transform="translate(156.031,205.0293)">
          <path d="m 0,0 c 0,0 1.68,-23.442 6.78,-30.809 3.655,-5.278 8.217,-12.335 17.859,-12.335 h 37.429 c 2.562,0 4.673,-1.817 5.124,-4.41 l 20.534,-94.143 50.765,15.358 c 0,0 -22.237,81.927 -25.265,89.333 -4.544,11.11 -10.864,18.788 -20.535,23.636 C 84.013,-9.019 30.779,2.348 30.779,2.348" style="fill:#cd4a3f;fill-opacity:1;fill-rule:nonzero;stroke:none" id="path308"/>
        </g>
        <g id="g310" transform="translate(255.9732,171.7406)">
          <path d="M 0,0 C 0.026,-10.539 -0.798,-21.079 -2.459,-31.486" style="fill:none;stroke:#000000;stroke-width:1;stroke-linecap:butt;stroke-linejoin:round;stroke-miterlimit:10;stroke-dasharray:none;stroke-opacity:1" id="path312"/>
        </g>
        <g id="g314" transform="translate(261.6726,158.984)">
          <path d="M 0,0 C 1.192,-5.363 2.004,-10.811 2.431,-16.289" style="fill:none;stroke:#000000;stroke-width:1;stroke-linecap:butt;stroke-linejoin:round;stroke-miterlimit:10;stroke-dasharray:none;stroke-opacity:1" id="path316"/>
        </g>
        <g id="g318" transform="translate(240.1527,80.7352)">
          <path d="M 0,0 50.103,13.593" style="fill:none;stroke:#ec705d;stroke-width:1;stroke-linecap:butt;stroke-linejoin:miter;stroke-miterlimit:10;stroke-dasharray:none;stroke-opacity:1" id="path320"/>
        </g>
        <g id="g322" transform="translate(282.7444,120.8623)">
          <path d="m 0,0 c -5.738,21.063 -11.949,43.398 -13.488,47.161 -4.543,11.11 -10.863,18.788 -20.535,23.636" style="fill:none;stroke:#000000;stroke-width:1;stroke-linecap:butt;stroke-linejoin:round;stroke-miterlimit:10;stroke-dasharray:none;stroke-opacity:1" id="path324"/>
        </g>
        <g id="g326" transform="translate(138.6149,205.8845)">
          <path d="m 0,0 c 0,0 -5.153,-43.999 20.115,-43.999 h 23.923 c 17.251,0 66.069,29.774 66.069,29.774 L 94.988,13.934 53.64,4.042" style="fill:#cd4a3f;fill-opacity:1;fill-rule:nonzero;stroke:none" id="path328"/>
        </g>
        <g id="g330" transform="translate(182.6524,161.8856)">
          <path d="m 0,0 c 17.251,0 66.069,29.774 66.069,29.774 2.588,1.18 4.209,1.702 7.009,1.702" style="fill:none;stroke:#000000;stroke-width:1;stroke-linecap:butt;stroke-linejoin:round;stroke-miterlimit:10;stroke-dasharray:none;stroke-opacity:1" id="path332"/>
        </g>
        <g id="g334" transform="translate(180.9543,207.3771)">
          <path d="M 0,0 25.598,5.774" style="fill:none;stroke:#000000;stroke-width:1;stroke-linecap:butt;stroke-linejoin:round;stroke-miterlimit:10;stroke-dasharray:none;stroke-opacity:1" id="path336"/>
        </g>
        <g id="g338" transform="translate(177.1151,298.1584)">
          <path d="m 0,0 c 0,0 7.092,0.305 13.926,-3.884 8.108,-4.969 27.775,-44.437 27.775,-44.437 l 13.336,-3.461 -12.025,-19.933 c 0,0 -19.676,-1.153 -23.175,6.34 -3.498,7.493 -19.691,35.638 -19.691,35.638" style="fill:#ff673f;fill-opacity:1;fill-rule:nonzero;stroke:none" id="path340"/>
        </g>
        <g id="g342" transform="translate(189.5881,277.5798)">
          <path d="m 0,0 c 3.132,-6.5 6.28,-13.042 8.229,-19.989 2.83,-10.087 3.262,-21.282 9.463,-29.726" style="fill:none;stroke:#8c3425;stroke-width:1;stroke-linecap:butt;stroke-linejoin:round;stroke-miterlimit:10;stroke-dasharray:none;stroke-opacity:1" id="path344"/>
        </g>
        <g id="g346" transform="translate(138.1824,301.6638)">
          <path d="m 0,0 c 9.736,-16.669 15.647,-31.902 22.065,-50.901 4.007,-11.861 11.447,-32.909 19.111,-67.715 -14.395,-0.487 -28.79,-0.974 -43.185,-1.461 -4.029,33.004 -19.825,63.548 -25.297,96.343 l 10.686,20.572 z" style="fill:#ff673f;fill-opacity:1;fill-rule:nonzero;stroke:none" id="path348"/>
        </g>
        <g id="g350" transform="translate(127.2115,299.5767)">
          <path d="m 0,0 c 4.106,-8.457 7.133,-16.729 11.749,-24.902 0.32,-0.565 0.664,-1.153 1.21,-1.485 0.374,-0.228 0.811,-0.315 1.238,-0.395 1.998,-0.376 4.007,-0.685 6.024,-0.928 -1.481,-2.258 -2.962,-4.516 -4.443,-6.775 -0.132,-0.201 -0.269,-0.422 -0.253,-0.664 0.02,-0.312 0.282,-0.54 0.522,-0.731 6.649,-5.282 12.752,-11.291 18.175,-17.892" style="fill:none;stroke:#8c3425;stroke-width:1;stroke-linecap:butt;stroke-linejoin:round;stroke-miterlimit:10;stroke-dasharray:none;stroke-opacity:1" id="path352"/>
        </g>
        <g id="g354" transform="translate(189.0365,260.8519)">
          <path d="M 0,0 13.806,-21.522" style="fill:none;stroke:#7b2c1c;stroke-width:3;stroke-linecap:butt;stroke-linejoin:miter;stroke-miterlimit:10;stroke-dasharray:none;stroke-opacity:1" id="path356"/>
        </g>
        <g id="g358" transform="translate(156.2456,209.9261)">
          <path d="M 0,0 C 10.033,3.636 19.983,7.497 29.843,11.58 L 24.5,32.7 -7.771,26.684" style="fill:#ffad85;fill-opacity:1;fill-rule:nonzero;stroke:none" id="path360"/>
        </g>
        <g id="g362" transform="translate(125.0529,299.166)">
          <path d="m 0,0 c 0,0 -3.49,-0.664 -5.282,-1.157 -3.735,-1.027 -5.239,-1.798 -8.442,-3.976 -10.263,-6.981 -11.912,-13.589 -10.169,-24.732 1.783,-11.391 7.344,-26.805 12.568,-37.069 3.56,-6.993 7.461,-16.165 12.853,-21.943 7.725,-8.279 15.521,-8.497 25.469,-4.408 5.272,2.166 17.427,7.27 17.427,7.27 l -10.872,25.978 -8.871,-1.394 -10.079,23.428" style="fill:#ff673f;fill-opacity:1;fill-rule:nonzero;stroke:none" id="path364"/>
        </g>
        <g id="g366" transform="translate(158.6045,239.1292)">
          <path d="M 0,0 -8.87,-1.394 -18.95,22.034" style="fill:none;stroke:#8c3425;stroke-width:1;stroke-linecap:butt;stroke-linejoin:round;stroke-miterlimit:10;stroke-dasharray:none;stroke-opacity:1" id="path368"/>
        </g>
        <g id="g370" transform="translate(132.4205,205.5322)">
          <path d="m 0,0 c 5.918,-3.362 12.169,-2.718 19.63,0.348 5.271,2.167 17.426,7.271 17.426,7.271" style="fill:none;stroke:#8c3425;stroke-width:1;stroke-linecap:butt;stroke-linejoin:round;stroke-miterlimit:10;stroke-dasharray:none;stroke-opacity:1" id="path372"/>
        </g>
        <g id="g374" transform="translate(172.5369,240.244)">
          <path d="m 0,0 c 3.678,1.415 7.357,2.829 11.035,4.244 1.703,0.655 3.51,1.617 5.298,1.961 1.864,0.358 3.754,0.598 5.645,0.749 1.704,0.135 3.414,0.191 5.122,0.165 C 27.728,7.11 28.358,7.09 28.974,6.971 30.087,6.757 31.112,6.232 32.12,5.714 34.384,4.549 36.668,3.372 38.633,1.753 38.818,1.601 39.01,1.428 39.064,1.195 39.141,0.858 38.886,0.515 38.57,0.375 38.254,0.234 37.893,0.245 37.547,0.259 c 0.349,-0.32 0.723,-0.691 0.748,-1.164 0.033,-0.637 -0.583,-1.116 -1.179,-1.344 -0.624,-0.238 -1.302,-0.336 -1.968,-0.283 0.317,0.083 0.595,-0.31 0.524,-0.63 -0.072,-0.32 -0.356,-0.544 -0.638,-0.711 -0.513,-0.303 -1.081,-0.51 -1.669,-0.607 0.167,0.027 0.046,-0.741 0.023,-0.808 -0.106,-0.311 -0.828,-0.93 -1.072,-1.13 -1.941,-1.589 -3.825,-1.967 -6.055,-3.039 -3.175,-1.527 -4.638,-5.001 -7.414,-7.098 -3.755,-2.837 -8.898,-2.901 -13.162,-4.891" style="fill:#ffad85;fill-opacity:1;fill-rule:nonzero;stroke:none" id="path376"/>
        </g>
        <g id="g378" transform="translate(194.0987,234.0936)">
          <path d="m 0,0 c 0,0 3.936,1.036 5.816,1.466 1.881,0.431 4.147,0.633 6.352,0.422" style="fill:none;stroke:#000000;stroke-width:1;stroke-linecap:butt;stroke-linejoin:round;stroke-miterlimit:10;stroke-dasharray:none;stroke-opacity:1" id="path380"/>
        </g>
        <g id="g382" transform="translate(193.1976,238.3305)">
          <path d="m 0,0 c 1.317,0.295 2.644,0.547 3.978,0.756 1.875,0.293 3.787,0.501 5.667,0.243 1.829,-0.251 3.567,-0.933 5.285,-1.61" style="fill:none;stroke:#000000;stroke-width:1;stroke-linecap:butt;stroke-linejoin:round;stroke-miterlimit:10;stroke-dasharray:none;stroke-opacity:1" id="path384"/>
        </g>
        <g id="g386" transform="translate(193.5726,243.3357)">
          <path d="m 0,0 c 1.912,0.138 4.652,0.052 6.569,0.049 0.97,-0.002 1.944,-0.022 2.902,-0.172 2.481,-0.389 4.735,-1.626 6.931,-2.842" style="fill:none;stroke:#000000;stroke-width:1;stroke-linecap:butt;stroke-linejoin:round;stroke-miterlimit:10;stroke-dasharray:none;stroke-opacity:1" id="path388"/>
        </g>
        <g id="g390" transform="translate(142.0694,235.8408)">
          <path d="M 0,0 C 2.555,0.632 5.11,1.263 7.665,1.895" style="fill:none;stroke:#8c3425;stroke-width:1;stroke-linecap:butt;stroke-linejoin:round;stroke-miterlimit:10;stroke-dasharray:none;stroke-opacity:1" id="path392"/>
        </g>
        <g id="g394" transform="translate(104.7458,281.8421)">
          <path d="M 0,0 C 9.079,-0.453 21.384,-1.615 34.909,-20.679" style="fill:none;stroke:#8c3425;stroke-width:1;stroke-linecap:butt;stroke-linejoin:round;stroke-miterlimit:10;stroke-dasharray:none;stroke-opacity:1" id="path396"/>
        </g>
        <g id="g398" transform="translate(226.8156,217.9297)">
          <path d="m 0,0 -39.298,-3.744 22.386,59.494 39.298,3.744 z" style="fill:#49273d;fill-opacity:1;fill-rule:nonzero;stroke:none" id="path400"/>
        </g>
        <g id="g402" transform="translate(181.6595,250.1627)">
          <path d="m 0,0 c 1.198,7.991 1.488,18.898 1.488,20.329 0,1.432 -5.886,5.913 -5.886,5.913 0,0 5.134,1.329 5.604,3.383 0.47,2.054 -4.69,18.452 -4.69,18.452" style="fill:none;stroke:#8c3425;stroke-width:1;stroke-linecap:butt;stroke-linejoin:round;stroke-miterlimit:10;stroke-dasharray:none;stroke-opacity:1" id="path404"/>
        </g>
        <g id="g406" transform="translate(238.2376,248.285)">
          <path d="m 0,0 -1.089,-2.895 c -1.558,-0.622 -3.32,-0.86 -4.877,-1.482 -1.183,-0.472 -2.404,-1.344 -3.078,-2.485 -0.419,-0.709 -0.757,-2.226 -0.212,-3.047 -0.725,-0.505 -1.376,-1.139 -1.814,-1.88 -0.551,-0.933 -0.971,-3.131 0.256,-3.764 -0.18,-0.21 -0.353,-0.424 -0.491,-0.658 -0.519,-0.877 -0.916,-3.01 0.391,-3.458 -0.44,-0.787 -0.761,-2.616 0.436,-2.916 0.353,-0.088 0.719,0.052 1.056,0.189 1.361,0.556 4.328,1.275 5.69,1.831 0.742,0.303 1.494,0.612 2.138,1.091 0.644,0.479 1.179,1.156 1.318,1.946 0.077,0.435 -0.015,1.002 -0.19,1.58 0.696,0.558 1.266,1.307 1.42,2.182 0.102,0.575 -0.046,1.346 -0.304,2.111 0.004,0.003 0.008,0.005 0.011,0.007 0.848,0.631 1.552,1.522 1.735,2.562 0.122,0.69 -0.072,1.631 -0.401,2.545 C 2.67,-5.98 3.219,-5.243 3.37,-4.383 3.596,-3.105 1.47,-1.001 0,0" style="fill:#ffad85;fill-opacity:1;fill-rule:nonzero;stroke:none" id="path408"/>
        </g>
        <g id="g410" transform="translate(229.0849,238.3372)">
          <path d="m 0,0 c 1.73,-0.212 3.44,0.423 5.068,1.047 2,0.766 4,1.533 6,2.299" style="fill:none;stroke:#000000;stroke-width:1;stroke-linecap:butt;stroke-linejoin:round;stroke-miterlimit:10;stroke-dasharray:none;stroke-opacity:1" id="path412"/>
        </g>
        <g id="g414" transform="translate(227.459,232.628)">
          <path d="M 0,0 C 1.902,-0.135 4.693,1.316 11.331,4.017" style="fill:none;stroke:#000000;stroke-width:1;stroke-linecap:butt;stroke-linejoin:round;stroke-miterlimit:10;stroke-dasharray:none;stroke-opacity:1" id="path416"/>
        </g>
        <g id="g418" transform="translate(227.4134,228.7213)">
          <path d="m 0,0 c 0.898,-0.251 1.847,0.048 2.731,0.344 2.607,0.875 5.238,1.761 7.59,3.187" style="fill:none;stroke:#000000;stroke-width:1;stroke-linecap:butt;stroke-linejoin:round;stroke-miterlimit:10;stroke-dasharray:none;stroke-opacity:1" id="path420"/>
        </g>
        <g id="g422" transform="translate(244.152,279.5387)">
          <path d="m 0,0 -4.015,-0.383 0.406,1.079 c 0.222,0.59 -0.252,1.21 -0.88,1.15 L -19.142,0.45 c -0.849,-0.081 -1.578,-0.639 -1.879,-1.437 l -0.396,-1.053 -4.394,-0.419 c -1.496,-0.143 -2.78,-1.125 -3.31,-2.531 l -1.931,-5.133 30.654,2.921 1.948,5.176 C 1.941,-0.986 1.107,0.105 0,0" style="fill:#925d81;fill-opacity:1;fill-rule:nonzero;stroke:none" id="path424"/>
        </g>
        <g id="g426" transform="translate(173.5142,356.9386)">
          <path d="m 0,0 c 8.161,-4.949 9.071,-10.756 9.933,-16.082 0.918,-5.668 -0.777,-11.807 1.609,-17.03 0.74,-1.621 1.84,-3.054 2.615,-4.658 2.29,-4.74 1.507,-10.322 0.673,-15.52 l -28.191,10.613 -9.409,42.123" style="fill:#722c1a;fill-opacity:1;fill-rule:nonzero;stroke:none" id="path428"/>
        </g>
        <g id="g430" transform="translate(181.4182,334.186)">
          <path d="m 0,0 c -0.551,-2.359 -0.887,-4.769 -1.004,-7.189 -0.042,-0.863 -0.054,-1.74 0.15,-2.581 0.257,-1.064 0.846,-2.011 1.337,-2.989 1.421,-2.827 2.064,-6.04 1.839,-9.196" style="fill:none;stroke:#46160c;stroke-width:1;stroke-linecap:butt;stroke-linejoin:miter;stroke-miterlimit:10;stroke-dasharray:none;stroke-opacity:1" id="path432"/>
        </g>
        <g id="g434" transform="translate(177.3217,315.8309)">
          <path d="m 0,0 c 0,-2.454 -1.213,-4.444 -2.71,-4.444 -1.497,0 -2.71,1.99 -2.71,4.444 0,2.454 1.213,4.444 2.71,4.444 C -1.213,4.444 0,2.454 0,0 Z" style="fill:none;stroke:#ffd28a;stroke-width:1;stroke-linecap:butt;stroke-linejoin:miter;stroke-miterlimit:10;stroke-dasharray:none;stroke-opacity:1" id="path436"/>
        </g>
        <g id="g438" transform="translate(176.4753,318.8713)">
          <path d="m 0,0 c -0.449,-3.604 -2.655,-6.835 -5.463,-8.764 -6.689,-4.592 -16.177,-0.295 -21.311,4.747 -2.875,2.822 -5.004,6.378 -6.323,10.175 -1.487,4.278 -1.742,8.899 -1.458,13.389 0.401,6.326 3.351,12.661 9.858,14.515 3.168,0.903 6.545,0.656 9.744,0.055 3.336,-0.627 6.646,-1.729 9.451,-3.685 3.364,-2.347 5.913,-4.953 6.243,-8.947 C 1.339,14.275 0.782,6.28 0,0" style="fill:#ffad85;fill-opacity:1;fill-rule:nonzero;stroke:none" id="path440"/>
        </g>
        <g id="g442" transform="translate(179.8361,350.3574)">
          <path d="m 0,0 c -0.638,1.413 -1.547,2.708 -2.79,3.803 -4.374,3.856 -9.752,6.828 -15.205,8.833 -5.33,1.96 -12.268,1.337 -17.623,-0.334 -3.864,-1.206 -7.183,-4.45 -9.718,-7.508 -2.72,-3.283 -4.287,-7.529 -4.269,-11.799 0.013,-3.152 0.004,-6.196 -1.55,-9.035 -1.532,-2.802 -4.187,-5.015 -4.639,-8.33 -0.37,-2.717 0.309,-6.233 0.774,-8.936 0.898,-5.214 0.078,-8.897 0.078,-8.897 l 27.01,-6.418 c 0,0 1.345,1.614 1.225,4.457 -0.136,3.231 -0.751,4.996 -3.052,7.269 -1.109,1.095 -2.625,2.06 -2.801,3.608 -0.135,1.182 0.584,2.268 0.994,3.384 0.664,1.809 0.521,3.835 -0.033,5.68 -0.486,1.62 -1.472,2.98 -2.045,4.538 -0.486,1.321 0.03,2.966 0.572,4.25 1.101,2.607 3.129,4.524 4.613,6.865 1.602,2.527 2.929,5.388 4.186,8.541 2.162,-0.638 5.255,-0.948 9.964,-2.553 6.309,-2.149 11.941,-7.996 11.941,-13.356 1.58,1.992 2.99,3.824 3.366,6.339 C 1.477,-6.392 1.328,-2.942 0,0" style="fill:#722c1a;fill-opacity:1;fill-rule:nonzero;stroke:none" id="path444"/>
        </g>
        <g id="g446" transform="translate(150.2253,351.5923)">
          <path d="m 0,0 c -0.735,-4.022 -2.52,-7.847 -5.13,-10.995 -1.937,-2.336 -4.475,-4.688 -4.379,-7.721 0.097,-3.063 2.962,-5.712 2.456,-8.736 -0.359,-2.146 -2.387,-3.924 -2.118,-6.084 0.178,-1.416 1.299,-2.491 2.211,-3.589 0.912,-1.097 1.691,-2.613 1.074,-3.899" style="fill:none;stroke:#46160c;stroke-width:1;stroke-linecap:butt;stroke-linejoin:miter;stroke-miterlimit:10;stroke-dasharray:none;stroke-opacity:1" id="path448"/>
        </g>
        <g id="g450" transform="translate(138.0525,343.8882)">
          <path d="m 0,0 c -3.971,-4.172 -4.709,-10.505 -4.036,-16.224 0.121,-1.022 0.279,-2.064 0.067,-3.071 -0.211,-1.002 -0.771,-1.889 -1.222,-2.809 -1.696,-3.458 -1.852,-7.637 -0.417,-11.211" style="fill:none;stroke:#46160c;stroke-width:1;stroke-linecap:butt;stroke-linejoin:miter;stroke-miterlimit:10;stroke-dasharray:none;stroke-opacity:1" id="path452"/>
        </g>
        <g id="g454" transform="translate(162.4848,355.033)">
          <path d="M 0,0 C 6.223,-1.371 11.728,-5.692 14.539,-11.41" style="fill:none;stroke:#46160c;stroke-width:1;stroke-linecap:butt;stroke-linejoin:miter;stroke-miterlimit:10;stroke-dasharray:none;stroke-opacity:1" id="path456"/>
        </g>
        <g id="g458" transform="translate(154.4094,360.6339)">
          <path d="M 0,0 C 5.951,-0.027 11.866,-2.271 16.336,-6.198" style="fill:none;stroke:#46160c;stroke-width:1;stroke-linecap:butt;stroke-linejoin:miter;stroke-miterlimit:10;stroke-dasharray:none;stroke-opacity:1" id="path460"/>
        </g>
        <g id="g462" transform="translate(169.0521,332.8678)">
          <path d="m 0,0 c -0.06,-2.143 -0.48,-5.001 1.307,-6.614 0.26,-0.235 0.56,-0.425 0.796,-0.684 1.533,-1.688 -0.658,-3.41 -2.04,-4.223" style="fill:none;stroke:#000000;stroke-width:1;stroke-linecap:butt;stroke-linejoin:miter;stroke-miterlimit:10;stroke-dasharray:none;stroke-opacity:1" id="path464"/>
        </g>
        <g id="g466" transform="translate(170.9341,319.4577)">
          <path d="m 0,0 -9.294,2.09 c 0,0 0.039,-5.21 3.913,-6.353 C -2.246,-5.189 0,0 0,0" style="fill:#ffffff;fill-opacity:1;fill-rule:nonzero;stroke:none" id="path468"/>
        </g>
        <g id="g470" transform="translate(155.5635,337.4438)">
          <path d="M 0,0 C 0.827,1.008 2.048,1.697 3.36,1.897 4.672,2.097 6.063,1.806 7.189,1.096" style="fill:none;stroke:#000000;stroke-width:1;stroke-linecap:butt;stroke-linejoin:miter;stroke-miterlimit:10;stroke-dasharray:none;stroke-opacity:1" id="path472"/>
        </g>
        <g id="g474" transform="translate(172.8015,336.2589)">
          <path d="M 0,0 C 1.688,0.828 3.129,0.03 3.75,-0.805" style="fill:none;stroke:#000000;stroke-width:1;stroke-linecap:butt;stroke-linejoin:miter;stroke-miterlimit:10;stroke-dasharray:none;stroke-opacity:1" id="path476"/>
        </g>
        <g id="g478" transform="translate(162.5454,330.8165)">
          <path d="m 0,0 c -0.065,-0.988 -0.687,-1.752 -1.389,-1.705 -0.702,0.046 -1.218,0.885 -1.152,1.873 0.065,0.988 0.687,1.752 1.389,1.705 C -0.451,1.827 0.065,0.988 0,0" style="fill:#000000;fill-opacity:1;fill-rule:nonzero;stroke:none" id="path480"/>
        </g>
        <g id="g482" transform="translate(176.0611,329.7879)">
          <path d="m 0,0 c -0.065,-0.988 -0.687,-1.752 -1.389,-1.706 -0.702,0.047 -1.218,0.886 -1.152,1.874 0.065,0.988 0.687,1.752 1.389,1.705 C -0.451,1.827 0.065,0.988 0,0" style="fill:#000000;fill-opacity:1;fill-rule:nonzero;stroke:none" id="path484"/>
        </g>
        <g id="g486" transform="translate(149.9156,332.5271)">
          <path d="m 0,0 c -1.55,1.615 -3.588,1.232 -4.844,0.983 -2.861,-0.569 -3.504,-4.135 -3.175,-6.623 0.365,-2.766 2.205,-5.459 4.895,-6.418 1.829,-0.652 4.858,0.269 5.249,3.717" style="fill:#ffad85;fill-opacity:1;fill-rule:nonzero;stroke:none" id="path488"/>
        </g>
        <g id="g490" transform="translate(144.7691,329.1334)">
          <path d="M 0,0 C 2.222,-0.985 3.415,-2.119 5.471,-3.417" style="fill:none;stroke:#000000;stroke-width:1;stroke-linecap:butt;stroke-linejoin:miter;stroke-miterlimit:10;stroke-dasharray:none;stroke-opacity:1" id="path492"/>
        </g>
        <g id="g494" transform="translate(145.5645,321.037)">
          <path d="m 0,0 c 1.725,-1.003 4.014,-0.901 5.337,0.696 0.414,0.5 0.701,1.072 1.003,1.642" style="fill:none;stroke:#000000;stroke-width:1;stroke-linecap:butt;stroke-linejoin:miter;stroke-miterlimit:10;stroke-dasharray:none;stroke-opacity:1" id="path496"/>
        </g>
        <g id="g498" transform="translate(146.484,333.7196)">
          <path d="M 0,0 C 1.447,-0.072 3.147,-0.61 4.26,-1.55" style="fill:none;stroke:#000000;stroke-width:1;stroke-linecap:butt;stroke-linejoin:miter;stroke-miterlimit:10;stroke-dasharray:none;stroke-opacity:1" id="path500"/>
        </g>
        <g id="g502" transform="translate(149.1942,317.0515)">
          <path d="m 0,0 c 0,-2.454 -1.213,-4.444 -2.71,-4.444 -1.497,0 -2.71,1.99 -2.71,4.444 0,2.454 1.213,4.443 2.71,4.443 C -1.213,4.443 0,2.454 0,0 Z" style="fill:none;stroke:#ffd28a;stroke-width:1;stroke-linecap:butt;stroke-linejoin:miter;stroke-miterlimit:10;stroke-dasharray:none;stroke-opacity:1" id="path504"/>
        </g>
        <g id="g506" transform="translate(154.5246,311.0564)">
          <path d="M 0,0 C 3.493,-2.283 7.687,-3.479 11.859,-3.381" style="fill:none;stroke:#000000;stroke-width:1;stroke-linecap:butt;stroke-linejoin:miter;stroke-miterlimit:10;stroke-dasharray:none;stroke-opacity:1" id="path508"/>
        </g>
        <g id="g510" transform="translate(193.4532,332.7279)">
          <path d="M 0,0 23.283,11.995" style="fill:none;stroke:#000000;stroke-width:1;stroke-linecap:butt;stroke-linejoin:round;stroke-miterlimit:10;stroke-dasharray:none;stroke-opacity:1" id="path512"/>
        </g>
        <g id="g514" transform="translate(197.1425,322.7829)">
          <path d="M 0,0 23.674,6.404" style="fill:none;stroke:#000000;stroke-width:1;stroke-linecap:butt;stroke-linejoin:round;stroke-miterlimit:10;stroke-dasharray:none;stroke-opacity:1" id="path516"/>
        </g>
        <g id="g518" transform="translate(200.9246,313.2785)">
          <path d="M 0,0 21.116,0.206" style="fill:none;stroke:#000000;stroke-width:1;stroke-linecap:butt;stroke-linejoin:round;stroke-miterlimit:10;stroke-dasharray:none;stroke-opacity:1" id="path520"/>
        </g>
        <g id="g522" transform="translate(210.2256,165.2257)">
          <path d="m 0,0 -3.494,18.388 c -1.213,6.384 -6.794,11.005 -13.293,11.005 h -64.926 c -6.527,0 -12.07,-4.78 -13.03,-11.236 L -96.549,6.015 c -1.925,-12.946 8.106,-24.579 21.195,-24.579 h 59.985 C -5.558,-18.564 1.831,-9.638 0,0" style="fill:#ffac76;fill-opacity:1;fill-rule:nonzero;stroke:none" id="path524"/>
        </g>
        <g id="g526" transform="translate(198.403,147.0628)">
          <path d="M 0,0 C 7.965,1.838 13.425,9.727 11.823,18.163 L 8.329,36.551 C 7.115,42.935 1.535,47.556 -4.964,47.556 h -64.927 c -6.527,0 -12.07,-4.78 -13.03,-11.236 L -84.726,24.178 C -85.842,16.674 -82.941,9.612 -77.757,5" style="fill:none;stroke:#eb8447;stroke-width:1;stroke-linecap:butt;stroke-linejoin:miter;stroke-miterlimit:10;stroke-dasharray:none;stroke-opacity:1" id="path528"/>
        </g>
        <g id="g530" transform="translate(452.5032,165.2257)">
          <path d="m 0,0 3.494,18.388 c 1.213,6.384 6.794,11.005 13.293,11.005 h 55.326 c 6.527,0 12.07,-4.78 13.03,-11.236 L 86.949,6.015 C 88.874,-6.931 78.843,-18.564 65.754,-18.564 H 15.369 C 5.558,-18.564 -1.831,-9.638 0,0" style="fill:#ffac76;fill-opacity:1;fill-rule:nonzero;stroke:none" id="path532"/>
        </g>
        <g id="g534" transform="translate(493.6718,146.6618)">
          <path d="m 0,0 h 85.213 c 16.364,0 30.417,11.634 33.471,27.71 l 14.681,77.264 c 4.214,22.173 -12.787,42.708 -35.357,42.708 H 72.296 c -25.663,0 -47.701,-18.245 -52.492,-43.458 z" style="fill:#ffac76;fill-opacity:1;fill-rule:nonzero;stroke:none" id="path536"/>
        </g>
        <g id="g538" transform="translate(480.6482,160.6492)">
          <path d="m 0,0 h 116.077 c -1.542,-8.115 -8.636,-13.987 -16.896,-13.987 H -8.887 l 1.495,7.867 C -6.717,-2.569 -3.614,0 0,0" style="fill:#ffac76;fill-opacity:1;fill-rule:nonzero;stroke:none" id="path540"/>
        </g>
        <g id="g542" transform="translate(613.2995,274.4541)">
          <path d="m 0,0 c -7.756,-3.491 -13.907,-10.474 -18.065,-18.377 -4.159,-7.904 -6.498,-16.727 -8.344,-25.547 -2.481,-11.853 -4.14,-23.871 -5.442,-35.912" style="fill:none;stroke:#eb8447;stroke-width:1;stroke-linecap:butt;stroke-linejoin:miter;stroke-miterlimit:10;stroke-dasharray:none;stroke-opacity:1" id="path544"/>
        </g>
        <path d="m 470.512,135.58 h 114.274 v 11.082 H 470.512 Z" style="fill:#773634;fill-opacity:1;fill-rule:nonzero;stroke:none" id="path546"/>
        <g id="g548" transform="translate(573.837,135.5796)">
          <path d="M 0,0 H 8.408 L 37.544,-93.971 H 33.481 Z" style="fill:#773634;fill-opacity:1;fill-rule:nonzero;stroke:none" id="path550"/>
        </g>
        <g id="g552" transform="translate(551.5747,135.5796)">
          <path d="M 0,0 H 8.408 L 29.526,-93.971 H 25.463 Z" style="fill:#773634;fill-opacity:1;fill-rule:nonzero;stroke:none" id="path554"/>
        </g>
        <g id="g556" transform="translate(481.2813,135.5796)">
          <path d="m 0,0 h -8.408 l -29.136,-93.971 h 4.063 z" style="fill:#773634;fill-opacity:1;fill-rule:nonzero;stroke:none" id="path558"/>
        </g>
        <g id="g560" transform="translate(503.5436,135.5796)">
          <path d="m 0,0 h -8.408 l -21.118,-93.971 h 4.063 z" style="fill:#773634;fill-opacity:1;fill-rule:nonzero;stroke:none" id="path562"/>
        </g>
        <g id="g564" transform="translate(582.2448,135.5796)">
          <path d="M 0,0 H -8.408" style="fill:none;stroke:#461818;stroke-width:1;stroke-linecap:butt;stroke-linejoin:miter;stroke-miterlimit:10;stroke-dasharray:none;stroke-opacity:1" id="path566"/>
        </g>
        <g id="g568" transform="translate(559.9825,135.5796)">
          <path d="M 0,0 H -8.408" style="fill:none;stroke:#461818;stroke-width:1;stroke-linecap:butt;stroke-linejoin:miter;stroke-miterlimit:10;stroke-dasharray:none;stroke-opacity:1" id="path570"/>
        </g>
        <g id="g572" transform="translate(503.5436,135.5796)">
          <path d="M 0,0 H -8.408" style="fill:none;stroke:#461818;stroke-width:1;stroke-linecap:butt;stroke-linejoin:miter;stroke-miterlimit:10;stroke-dasharray:none;stroke-opacity:1" id="path574"/>
        </g>
        <g id="g576" transform="translate(481.2813,135.5796)">
          <path d="M 0,0 H -8.408" style="fill:none;stroke:#461818;stroke-width:1;stroke-linecap:butt;stroke-linejoin:miter;stroke-miterlimit:10;stroke-dasharray:none;stroke-opacity:1" id="path578"/>
        </g>
        <g id="g580" transform="translate(447.2432,279.8384)">
          <path d="M 0,0 -10.871,-8.313 -35.953,11.962 -55.392,-8.313 c 0,0 31.98,-34.488 40.549,-38.459 8.57,-3.971 18.888,1.375 25.897,7.419 8.786,7.577 26.222,26.024 26.222,26.024" style="fill:#ffc4b4;fill-opacity:1;fill-rule:nonzero;stroke:none" id="path582"/>
        </g>
        <g id="g584" transform="translate(501.9552,310.8607)">
          <path d="M 0,0 C 0,0 -13.484,-0.684 -20.317,-3.402 -31.829,-7.979 -54.513,-28.908 -63.15,-37.139 l 30.632,-33.637 25.866,24.961" style="fill:#202049;fill-opacity:1;fill-rule:nonzero;stroke:none" id="path586"/>
        </g>
        <g id="g588" transform="translate(484.7613,283.242)">
          <path d="m 0,0 c 2.893,-25.947 4.679,-52.191 7.644,-77.531 l 92.347,-4.143 C 97.742,-49.881 94.717,-24.763 86.779,2.35 L 75.164,20.484 47.023,29.373 27.09,12.642 17.194,27.619 Z" style="fill:#202049;fill-opacity:1;fill-rule:nonzero;stroke:none" id="path590"/>
        </g>
        <g id="g592" transform="translate(487.4301,256.8182)">
          <path d="M 0,0 -2.669,26.424" style="fill:none;stroke:#474777;stroke-width:1;stroke-linecap:butt;stroke-linejoin:miter;stroke-miterlimit:10;stroke-dasharray:none;stroke-opacity:1" id="path594"/>
        </g>
        <g id="g596" transform="translate(492.6207,309.8724)">
          <path d="m 0,0 5.185,-21.365 13.982,5.441 15.568,-5.909 17.038,20.593" style="fill:none;stroke:#474777;stroke-width:1;stroke-linecap:butt;stroke-linejoin:miter;stroke-miterlimit:10;stroke-dasharray:none;stroke-opacity:1" id="path598"/>
        </g>
        <g id="g600" transform="translate(445.3055,280.0023)">
          <path d="M 0,0 30.42,-33.849" style="fill:none;stroke:#474777;stroke-width:1;stroke-linecap:butt;stroke-linejoin:miter;stroke-miterlimit:10;stroke-dasharray:none;stroke-opacity:1" id="path602"/>
        </g>
        <g id="g604" transform="translate(516.0244,292.3364)">
          <path d="M 0,0 2.891,-32.511 H -4.833 L -7.724,0" style="fill:none;stroke:#474777;stroke-width:1;stroke-linecap:butt;stroke-linejoin:miter;stroke-miterlimit:10;stroke-dasharray:none;stroke-opacity:1" id="path606"/>
        </g>
        <g id="g608" transform="translate(510.9717,284.1856)">
          <path d="M 0,0 H 4.122" style="fill:none;stroke:#474777;stroke-width:1;stroke-linecap:butt;stroke-linejoin:miter;stroke-miterlimit:10;stroke-dasharray:none;stroke-opacity:1" id="path610"/>
        </g>
        <g id="g612" transform="translate(512.353,268.9692)">
          <path d="M 0,0 H 4.122" style="fill:none;stroke:#474777;stroke-width:1;stroke-linecap:butt;stroke-linejoin:miter;stroke-miterlimit:10;stroke-dasharray:none;stroke-opacity:1" id="path614"/>
        </g>
        <g id="g616" transform="translate(425.547,280.2755)">
          <path d="m 0,0 c 0,0 -5.972,4.179 -7.733,6.065 -3.308,3.542 -6.583,7.202 -10.684,9.825 -3.971,2.538 -8.332,4.38 -12.795,5.815 -5.078,1.632 -10.616,2.731 -15.748,4.176 -1.924,0.542 -2.401,-1.673 -1.078,-3.323 0.613,-0.765 1.382,-1.379 2.176,-1.949 0.799,-0.574 2.915,-2.44 2.915,-2.44 0,0 -7.688,-2.348 -11.315,-2.055 -3.252,0.263 -6.476,0.63 -9.744,0.504 -0.855,-0.033 -3.348,-0.98 -2.692,-2.393 0.077,-0.166 0.213,-0.289 0.35,-0.397 0.826,-0.653 2.189,-0.761 3.166,-1.027 1.572,-0.427 5.957,-0.876 5.957,-0.876 0,0 -7.204,-0.722 -11.887,-1.363 -0.846,-0.116 -3.479,-1.556 -3.312,-3.111 0.091,-0.837 2.944,-1.029 2.944,-1.029 0,0 -0.617,-0.08 -1.416,-0.607 -1.117,-0.737 -1.237,-1.32 -1.329,-1.716 -0.493,-2.117 3.997,-2.379 5.216,-2.617 5.05,-0.986 14.996,0.129 14.996,0.129 0,0 -2.294,-0.789 -4.566,-0.996 -2.565,-0.234 -7.65,0.693 -9.506,-1.543 -0.534,-0.642 -0.791,-1.097 -0.023,-1.919 0.411,-0.439 1.189,-0.498 1.709,-0.632 0.719,-0.185 1.441,-0.353 2.166,-0.502 4.062,-0.837 27.819,-4.672 28.241,-4.849 0.501,-0.21 11.82,-10.433 11.82,-10.433" style="fill:#ffc4b4;fill-opacity:1;fill-rule:nonzero;stroke:none" id="path618"/>
        </g>
        <g id="g620" transform="translate(367.5283,292.2623)">
          <path d="M 0,0 C 2.331,0.033 8.679,0.421 8.679,0.421" style="fill:none;stroke:#000000;stroke-width:1;stroke-linecap:butt;stroke-linejoin:round;stroke-miterlimit:10;stroke-dasharray:none;stroke-opacity:1" id="path622"/>
        </g>
        <g id="g624" transform="translate(355.7456,286.665)">
          <path d="m 0,0 c 2.368,0.012 5.58,-0.35 8.802,-0.113 4.99,0.366 9.625,1.493 9.625,1.493" style="fill:none;stroke:#000000;stroke-width:1;stroke-linecap:butt;stroke-linejoin:round;stroke-miterlimit:10;stroke-dasharray:none;stroke-opacity:1" id="path626"/>
        </g>
        <g id="g628" transform="translate(373.3041,281.9337)">
          <path d="M 0,0 C 3.28,0.405 6.317,1.454 9.483,2.329 11.91,3 14.391,3.469 16.895,3.732 18.69,3.92 21.696,4.578 23.383,3.652" style="fill:none;stroke:#000000;stroke-width:1;stroke-linecap:butt;stroke-linejoin:round;stroke-miterlimit:10;stroke-dasharray:none;stroke-opacity:1" id="path630"/>
        </g>
        <g id="g632" transform="translate(436.648,272.0923)">
          <path d="M 0,0 C 5.112,-4.413 10.307,-9.249 12.474,-15.645" style="fill:none;stroke:#000000;stroke-width:1;stroke-linecap:butt;stroke-linejoin:round;stroke-miterlimit:10;stroke-dasharray:none;stroke-opacity:1" id="path634"/>
        </g>
        <g id="g636" transform="translate(380.534,81.0471)">
          <path d="m 0,0 -5.59,-15.963 c 0,0 -13.331,-7.925 -18.079,-10.496 2.253,-0.559 64.617,-0.843 64.601,-0.433 -0.125,3.33 -0.811,5.288 -0.658,9.66 0.072,2.08 4.641,15.068 4.641,15.068" style="fill:#ffc4b4;fill-opacity:1;fill-rule:nonzero;stroke:none" id="path638"/>
        </g>
        <g id="g640" transform="translate(421.1176,65.5755)">
          <path d="m 0,0 -47.158,0.227 c 0,0 -21.136,-11.789 -24.383,-14.316 -3.246,-2.526 -5.581,-5.841 -5.706,-9.049 H 1.538 C 1.538,-23.138 0.775,-8.103 0,0" style="fill:#141433;fill-opacity:1;fill-rule:nonzero;stroke:none" id="path642"/>
        </g>
        <g id="g644" transform="translate(370.4184,63.8147)">
          <path d="M 0,0 9.052,-4.545" style="fill:none;stroke:#474777;stroke-width:1;stroke-linecap:butt;stroke-linejoin:miter;stroke-miterlimit:10;stroke-dasharray:none;stroke-opacity:1" id="path646"/>
        </g>
        <g id="g648" transform="translate(364.3345,60.6472)">
          <path d="M 0,0 9.052,-4.545" style="fill:none;stroke:#474777;stroke-width:1;stroke-linecap:butt;stroke-linejoin:miter;stroke-miterlimit:10;stroke-dasharray:none;stroke-opacity:1" id="path650"/>
        </g>
        <g id="g652" transform="translate(422.3297,48.3629)">
          <path d="M 0,0 H -75.949" style="fill:none;stroke:#474777;stroke-width:1;stroke-linecap:butt;stroke-linejoin:miter;stroke-miterlimit:10;stroke-dasharray:none;stroke-opacity:1" id="path654"/>
        </g>
        <g id="g656" transform="translate(491.6207,209.6756)">
          <path d="m 0,0 c 0,0 -37.373,-0.032 -45.877,0 -15.807,0.059 -36.047,-3.057 -44.862,-27.675 -10.616,-29.643 -24.084,-109.47 -24.084,-109.47 h 46.845 l 18.394,88.185 h 78.031 c 15.227,0 22.721,26.244 18.54,43.757" style="fill:#6957bd;fill-opacity:1;fill-rule:nonzero;stroke:none" id="path658"/>
        </g>
        <g id="g660" transform="translate(436.8688,81.0471)">
          <path d="m 0,0 -3.67,-15.963 c 0,0 -14.161,-8.393 -18.908,-10.964 2.252,-0.559 66.406,-0.375 66.39,0.035 -0.125,3.33 -0.811,5.288 -0.658,9.66 0.072,2.08 2.721,15.068 2.721,15.068" style="fill:#ffc4b4;fill-opacity:1;fill-rule:nonzero;stroke:none" id="path662"/>
        </g>
        <g id="g664" transform="translate(480.3324,65.5755)">
          <path d="m 0,0 -48.118,0.227 c 0,0 -21.136,-11.789 -24.383,-14.316 -3.246,-2.526 -5.581,-5.841 -5.707,-9.049 H 1.538 C 1.538,-23.138 0.775,-8.103 0,0" style="fill:#282851;fill-opacity:1;fill-rule:nonzero;stroke:none" id="path666"/>
        </g>
        <g id="g668" transform="translate(481.5445,48.3629)">
          <path d="M 0,0 H -76.909" style="fill:none;stroke:#ac7a6a;stroke-width:1;stroke-linecap:butt;stroke-linejoin:round;stroke-miterlimit:10;stroke-dasharray:none;stroke-opacity:1" id="path670"/>
        </g>
        <g id="g672" transform="translate(480.8191,59.2695)">
          <path d="M 0,0 C 0,0 -8.649,-2.032 -12.575,-10.907" style="fill:none;stroke:#ac7a6a;stroke-width:1;stroke-linecap:butt;stroke-linejoin:round;stroke-miterlimit:10;stroke-dasharray:none;stroke-opacity:1" id="path674"/>
        </g>
        <g id="g676" transform="translate(428.6732,63.8147)">
          <path d="M 0,0 9.052,-4.545" style="fill:none;stroke:#ac7a6a;stroke-width:1;stroke-linecap:butt;stroke-linejoin:round;stroke-miterlimit:10;stroke-dasharray:none;stroke-opacity:1" id="path678"/>
        </g>
        <g id="g680" transform="translate(422.5893,60.6472)">
          <path d="M 0,0 9.052,-4.545" style="fill:none;stroke:#ac7a6a;stroke-width:1;stroke-linecap:butt;stroke-linejoin:round;stroke-miterlimit:10;stroke-dasharray:none;stroke-opacity:1" id="path682"/>
        </g>
        <g id="g684" transform="translate(531.5142,203.9114)">
          <path d="m 0,0 c 0,0 -36.674,1.263 -45.084,0 -14.557,-2.186 -35.608,-6.43 -40.635,-41.225 -4.792,-33.164 -12.589,-90.156 -12.589,-90.156 h 48.765 l 15.129,88.185 h 72.896 c 15.227,0 16.554,23.339 12.372,40.853" style="fill:#6957bd;fill-opacity:1;fill-rule:nonzero;stroke:none" id="path686"/>
        </g>
        <g id="g688" transform="translate(503.8474,205.477)">
          <path d="m 0,0 c -26.062,-1.004 -48.769,-1.004 -54.283,-28.237 -1.229,-6.069 -4.277,-16.525 -4.277,-16.525" style="fill:none;stroke:#000000;stroke-width:1;stroke-linecap:butt;stroke-linejoin:miter;stroke-miterlimit:10;stroke-dasharray:none;stroke-opacity:1" id="path690"/>
        </g>
        <g id="g692" transform="translate(497.3055,160.7619)">
          <path d="M 0,0 C -2.102,-1.071 -4.203,-2.142 -6.305,-3.214" style="fill:none;stroke:#000000;stroke-width:1;stroke-linecap:butt;stroke-linejoin:miter;stroke-miterlimit:10;stroke-dasharray:none;stroke-opacity:1" id="path694"/>
        </g>
        <g id="g696" transform="translate(406.4863,184.6864)">
          <path d="M 0,0 C -0.807,-8.161 -1.121,-16.371 -0.94,-24.57" style="fill:none;stroke:#000000;stroke-width:1;stroke-linecap:butt;stroke-linejoin:miter;stroke-miterlimit:10;stroke-dasharray:none;stroke-opacity:1" id="path698"/>
        </g>
        <g id="g700" transform="translate(457.0033,174.4195)">
          <path d="M 0,0 C 0.297,-8.558 1.645,-17.08 4.004,-25.312" style="fill:none;stroke:#000000;stroke-width:1;stroke-linecap:butt;stroke-linejoin:miter;stroke-miterlimit:10;stroke-dasharray:none;stroke-opacity:1" id="path702"/>
        </g>
        <g id="g704" transform="translate(464.0987,168.1811)">
          <path d="M 0,0 C 1.23,-3.053 2.796,-5.97 4.659,-8.683" style="fill:none;stroke:#000000;stroke-width:1;stroke-linecap:butt;stroke-linejoin:miter;stroke-miterlimit:10;stroke-dasharray:none;stroke-opacity:1" id="path706"/>
        </g>
        <g id="g708" transform="translate(503.006,323.3178)">
          <path d="m 0,0 -1.051,-12.457 9.832,-16.912 23.026,17.982 -3.558,26.386" style="fill:#ffc4b4;fill-opacity:1;fill-rule:nonzero;stroke:none" id="path710"/>
        </g>
        <g id="g712" transform="translate(490.8099,336.1929)">
          <path d="m 0,0 c -0.616,-4.132 0.637,-8.425 2.879,-11.474 5.339,-7.263 16.107,-5.608 22.736,-1.709 3.712,2.183 6.894,5.42 9.337,9.188 2.753,4.246 4.374,9.272 5.416,14.33 1.468,7.127 0.387,15.095 -5.578,19.269 -2.905,2.033 -6.358,2.862 -9.738,3.242 -3.526,0.395 -7.165,0.258 -10.55,-0.989 C 10.44,30.359 7.61,28.057 5.607,24 2.307,17.316 1.073,7.2 0,0" style="fill:#ffc4b4;fill-opacity:1;fill-rule:nonzero;stroke:none" id="path714"/>
        </g>
        <g id="g716" transform="translate(496.172,334.5996)">
          <path d="m 0,0 c -0.636,0.015 -1.311,-0.05 -1.827,-0.432 -1.537,-1.139 -1.694,-4.161 0.331,-4.779 1.24,-0.378 7.627,-1.273 6.827,1.745 C 4.682,-1.016 2.394,-0.058 0,0" style="fill:#ffffff;fill-opacity:1;fill-rule:nonzero;stroke:none" id="path718"/>
        </g>
        <g id="g720" transform="translate(493.4984,348.803)">
          <path d="m 0,0 c -0.957,-2.92 -2.784,-6.283 -4.111,-8.819 -1.177,-2.25 2.995,-2.877 5.084,-3.032" style="fill:#ffc4b4;fill-opacity:1;fill-rule:nonzero;stroke:none" id="path722"/>
        </g>
        <g id="g724" transform="translate(500.9361,356.0719)">
          <path d="M 0,0 C 0.569,-1.567 1.705,-2.85 2.935,-3.949 4.164,-5.048 5.513,-6.006 6.684,-7.17" style="fill:none;stroke:#000000;stroke-width:1;stroke-linecap:butt;stroke-linejoin:miter;stroke-miterlimit:10;stroke-dasharray:none;stroke-opacity:1" id="path726"/>
        </g>
        <g id="g728" transform="translate(500.6547,349.8773)">
          <path d="M 0,0 C 0.971,-1.642 2.517,-2.918 4.288,-3.542" style="fill:none;stroke:#000000;stroke-width:1;stroke-linecap:butt;stroke-linejoin:miter;stroke-miterlimit:10;stroke-dasharray:none;stroke-opacity:1" id="path730"/>
        </g>
        <g id="g732" transform="translate(503.1465,346.0284)">
          <path d="m 0,0 c 0,-1.048 -0.558,-1.898 -1.246,-1.898 -0.688,0 -1.246,0.85 -1.246,1.898 0,1.048 0.558,1.898 1.246,1.898 C -0.558,1.898 0,1.048 0,0" style="fill:#000000;fill-opacity:1;fill-rule:nonzero;stroke:none" id="path734"/>
        </g>
        <g id="g736" transform="translate(527.1253,326.6389)">
          <path d="m 0,0 c -0.408,-0.032 -0.812,-0.093 -1.211,-0.197 -1.211,-0.314 -2.36,-1.019 -3.608,-0.932 -1.319,0.091 -2.437,1.08 -3.069,2.241 -0.632,1.162 -0.869,2.489 -1.135,3.784 -1.114,5.432 -2.891,10.727 -5.28,15.731 -0.428,0.898 -0.983,1.85 -1.186,2.832 -0.051,0.246 0.086,2.691 0.409,2.567 -2.179,0.834 -4.536,1.819 -5.643,3.873 -0.769,1.428 -0.787,3.156 -0.454,4.744 -1.76,0.546 -4.583,1.29 -6.369,0.547 -1.576,-0.656 -3.066,-1.992 -4.056,-3.353 -1.048,2.265 -1.921,3.663 -1.548,6.181 0.368,2.492 1.544,4.711 3.32,6.496 2.093,2.105 4.781,3.514 7.515,4.669 3.021,1.277 6.212,2.288 9.497,2.55 2.619,0.208 6.19,-0.168 8.607,-1.249 1.443,-0.645 2.701,-1.797 3.247,-3.28 4.318,0.343 5.818,0.22 8.672,-0.438 2.519,-0.581 5.157,-1.254 7.027,-3.038 2.717,-2.593 2.82,-6.874 0.747,-9.891 0.921,-0.355 1.661,-1.098 2.138,-1.963 0.953,-1.726 1.178,-3.937 0.618,-5.814 -0.72,-2.409 -2.438,-4.405 -4.371,-6.012 1.778,-0.38 2.834,-2.415 2.622,-4.22 C 16.277,14.023 15.096,12.472 13.75,11.25 12.458,10.073 11.358,8.575 10.316,7.17 9.83,6.514 9.35,5.824 9.158,5.029 8.964,4.224 9.078,3.362 8.836,2.57 8.294,0.794 6.194,-0.001 4.339,-0.067 2.895,-0.119 1.427,0.114 0,0" style="fill:#45201f;fill-opacity:1;fill-rule:nonzero;stroke:none" id="path738"/>
        </g>
        <g id="g740" transform="translate(540.0847,346.3481)">
          <path d="M 0,0 C -3.559,0.204 -6.78,-2.024 -10.279,-2.709" style="fill:none;stroke:#643c3c;stroke-width:1;stroke-linecap:butt;stroke-linejoin:miter;stroke-miterlimit:10;stroke-dasharray:none;stroke-opacity:1" id="path742"/>
        </g>
        <g id="g744" transform="translate(542.16,360.4398)">
          <path d="M 0,0 C -5.157,-0.476 -10.259,-1.538 -15.178,-3.16" style="fill:none;stroke:#643c3c;stroke-width:1;stroke-linecap:butt;stroke-linejoin:miter;stroke-miterlimit:10;stroke-dasharray:none;stroke-opacity:1" id="path746"/>
        </g>
        <g id="g748" transform="translate(526.0745,373.8075)">
          <path d="M 0,0 C -1.813,-0.209 -3.596,-0.674 -5.279,-1.378" style="fill:none;stroke:#643c3c;stroke-width:1;stroke-linecap:butt;stroke-linejoin:miter;stroke-miterlimit:10;stroke-dasharray:none;stroke-opacity:1" id="path750"/>
        </g>
        <g id="g752" transform="translate(506.1313,361.6698)">
          <path d="M 0,0 C 2.248,-0.209 4.659,-0.385 6.624,0.728" style="fill:none;stroke:#643c3c;stroke-width:1;stroke-linecap:butt;stroke-linejoin:miter;stroke-miterlimit:10;stroke-dasharray:none;stroke-opacity:1" id="path754"/>
        </g>
        <g id="g756" transform="translate(512.0807,352.8878)">
          <path d="M 0,0 C 2.726,-0.045 5.455,0.126 8.154,0.51" style="fill:none;stroke:#643c3c;stroke-width:1;stroke-linecap:butt;stroke-linejoin:miter;stroke-miterlimit:10;stroke-dasharray:none;stroke-opacity:1" id="path758"/>
        </g>
        <g id="g760" transform="translate(513.1247,345.5404)">
          <path d="M 0,0 C 1.371,1.267 3.049,1.452 4.364,1.202 7.357,0.633 8.075,-3.175 7.765,-5.841 7.42,-8.806 5.536,-11.713 2.742,-12.775 c -1.901,-0.723 -5.075,0.221 -5.528,3.906" style="fill:#ffc4b4;fill-opacity:1;fill-rule:nonzero;stroke:none" id="path762"/>
        </g>
        <g id="g764" transform="translate(518.484,342.7123)">
          <path d="M 0,0 C -2.306,-1.084 -4.535,-2.341 -6.663,-3.757" style="fill:none;stroke:#000000;stroke-width:1;stroke-linecap:butt;stroke-linejoin:miter;stroke-miterlimit:10;stroke-dasharray:none;stroke-opacity:1" id="path766"/>
        </g>
        <g id="g768" transform="translate(512.3628,345.2582)">
          <path d="M 0,0 C 0.618,0.518 1.311,0.941 2.049,1.253" style="fill:none;stroke:#000000;stroke-width:1;stroke-linecap:butt;stroke-linejoin:miter;stroke-miterlimit:10;stroke-dasharray:none;stroke-opacity:1" id="path770"/>
        </g>
        <g id="g772" transform="translate(510.3936,335.6007)">
          <path d="m 0,0 c 0.318,-1.276 1.325,-2.324 2.533,-2.771 1.209,-0.446 2.588,-0.317 3.748,0.25 1.16,0.567 2.104,1.547 2.742,2.691" style="fill:none;stroke:#000000;stroke-width:1;stroke-linecap:butt;stroke-linejoin:miter;stroke-miterlimit:10;stroke-dasharray:none;stroke-opacity:1" id="path774"/>
        </g>
        <g id="g776" transform="translate(502.6041,319.3035)">
          <path d="M 0,0 C 6.002,-0.809 12.936,2.13 15.748,4.974" style="fill:none;stroke:#000000;stroke-width:1;stroke-linecap:butt;stroke-linejoin:miter;stroke-miterlimit:10;stroke-dasharray:none;stroke-opacity:1" id="path778"/>
        </g>
        <g id="g780" transform="translate(490.8551,337.9029)">
          <path d="M 0,0 C 0.823,-0.16 1.661,-0.249 2.499,-0.263" style="fill:none;stroke:#000000;stroke-width:1;stroke-linecap:butt;stroke-linejoin:miter;stroke-miterlimit:10;stroke-dasharray:none;stroke-opacity:1" id="path782"/>
        </g>
        <g id="g784" transform="translate(492.0578,345.5766)">
          <path d="M 0,0 C 0.848,1.441 1.655,2.905 2.421,4.39" style="fill:none;stroke:#000000;stroke-width:1;stroke-linecap:butt;stroke-linejoin:miter;stroke-miterlimit:10;stroke-dasharray:none;stroke-opacity:1" id="path786"/>
        </g>
        <g id="g788" transform="translate(478.9412,343.2322)">
          <path d="M 0,0 -16.004,9.867" style="fill:none;stroke:#000000;stroke-width:1;stroke-linecap:butt;stroke-linejoin:round;stroke-miterlimit:10;stroke-dasharray:none;stroke-opacity:1" id="path790"/>
        </g>
        <g id="g792" transform="translate(477.8986,337.4749)">
          <path d="M 0,0 -19.491,0.948" style="fill:none;stroke:#000000;stroke-width:1;stroke-linecap:butt;stroke-linejoin:round;stroke-miterlimit:10;stroke-dasharray:none;stroke-opacity:1" id="path794"/>
        </g>
        <g id="g796" transform="translate(478.3312,327.1044)">
          <path d="M 0,0 -19.675,-3.57" style="fill:none;stroke:#000000;stroke-width:1;stroke-linecap:butt;stroke-linejoin:round;stroke-miterlimit:10;stroke-dasharray:none;stroke-opacity:1" id="path798"/>
        </g>
        <g id="g800" transform="translate(507.5037,165.2124)">
          <path d="m 0,0 3.495,18.396 c 1.214,6.388 6.798,11.01 13.299,11.01 H 81.75 c 6.53,0 12.076,-4.782 13.036,-11.241 L 96.592,6.018 c 1.926,-12.953 -8.109,-24.59 -21.204,-24.59 H 15.376 C 5.561,-18.572 -1.832,-9.643 0,0" style="fill:#ffac76;fill-opacity:1;fill-rule:nonzero;stroke:none" id="path802"/>
        </g>
        <g id="g804" transform="translate(519.3316,147.0413)">
          <path d="m 0,0 c -7.969,1.838 -13.432,9.732 -11.828,18.171 l 3.496,18.396 c 1.213,6.388 6.797,11.01 13.298,11.01 h 64.956 c 6.53,0 12.076,-4.782 13.036,-11.241 L 84.764,24.189 C 85.881,16.682 82.979,9.617 77.792,5.002" style="fill:none;stroke:#eb8447;stroke-width:1;stroke-linecap:butt;stroke-linejoin:miter;stroke-miterlimit:10;stroke-dasharray:none;stroke-opacity:1" id="path806"/>
        </g>
        <g id="g808" transform="translate(549.276,251.0038)">
          <path d="m 0,0 c 0,-0.439 8.501,-26.953 8.501,-26.953 0,0 -26.63,-4.27 -39.074,-10.992 -12.444,-6.722 12.055,-18.968 12.055,-18.968 h 53.682 c 11.435,0 16.339,10.684 13.481,21.929 -2.859,11.245 -9.99,36.166 -9.99,36.166" style="fill:#ffc4b4;fill-opacity:1;fill-rule:nonzero;stroke:none" id="path810"/>
        </g>
        <g id="g812" transform="translate(546.829,307.7743)">
          <path d="m 0,0 c 0,0 16.268,-2.974 24.615,-10.577 11.212,-10.214 24.563,-54.627 24.563,-54.627 l -45.593,-3.728 -7.17,30.99" style="fill:#202049;fill-opacity:1;fill-rule:nonzero;stroke:none" id="path814"/>
        </g>
        <g id="g816" transform="translate(550.414,238.842)">
          <path d="M 0,0 -7.17,30.99" style="fill:none;stroke:#474777;stroke-width:1;stroke-linecap:butt;stroke-linejoin:miter;stroke-miterlimit:10;stroke-dasharray:none;stroke-opacity:1" id="path818"/>
        </g>
        <g id="g820" transform="translate(522.7424,214.9005)">
          <path d="m 0,0 c -12.292,-5.065 -16.44,-11.622 -20.562,-18.085 -1.645,-2.58 -3.124,-5.556 -3.908,-8.522 -0.362,-1.37 -0.75,-5.31 -0.428,-6.698 0.343,-1.482 2.402,-5.98 2.402,-5.98 0,0 -0.057,-1.054 0.554,-3.172 0.611,-2.118 0.442,-4.343 1.63,-4.153 1.189,0.191 1.981,0.988 2.377,1.55 2.128,-0.234 3.744,-0.285 4.933,1.799 -0.024,-0.487 0.903,-0.738 1.374,-0.619 0.47,0.119 1.34,0.861 1.648,1.236 1.801,2.19 3.584,4.424 5.434,6.591 3.446,4.038 5.996,5.565 10.446,8.414 3.083,1.973 7.704,5.803 9.965,8.683" style="fill:#ffc4b4;fill-opacity:1;fill-rule:nonzero;stroke:none" id="path822"/>
        </g>
        <g id="g824" transform="translate(535.8343,193.3825)">
          <path d="M 0,0 C 1.53,1.67 3.408,2.99 5.466,3.843" style="fill:none;stroke:#000000;stroke-width:1;stroke-linecap:butt;stroke-linejoin:miter;stroke-miterlimit:10;stroke-dasharray:none;stroke-opacity:1" id="path826"/>
        </g>
        <g id="g828" transform="translate(509.7401,171.6393)">
          <path d="m 0,0 c -0.193,0.542 1.511,5.929 2.365,7.619 1.525,3.02 5.178,7.302 5.178,7.302" style="fill:none;stroke:#000000;stroke-width:1;stroke-linecap:butt;stroke-linejoin:miter;stroke-miterlimit:10;stroke-dasharray:none;stroke-opacity:1" id="path830"/>
        </g>
        <g id="g832" transform="translate(504.807,169.8409)">
          <path d="m 0,0 c 0,0 1.054,8.157 2.184,11.849 1.129,3.692 4.568,8.26 4.568,8.26" style="fill:none;stroke:#000000;stroke-width:1;stroke-linecap:butt;stroke-linejoin:miter;stroke-miterlimit:10;stroke-dasharray:none;stroke-opacity:1" id="path834"/>
        </g>
        <g id="g836" transform="translate(500.2832,174.4717)">
          <path d="m 0,0 c 0,0 0.565,7.646 1.345,10.531 0.78,2.886 4.631,9.62 4.631,9.62" style="fill:none;stroke:#000000;stroke-width:1;stroke-linecap:butt;stroke-linejoin:miter;stroke-miterlimit:10;stroke-dasharray:none;stroke-opacity:1" id="path838"/>
        </g>
        <g id="g840" transform="translate(557.706,224.4108)">
          <path d="M 0,0 C 9.119,1.157 20.432,-1.272 27.475,-4.012" style="fill:none;stroke:#000000;stroke-width:1;stroke-linecap:butt;stroke-linejoin:miter;stroke-miterlimit:10;stroke-dasharray:none;stroke-opacity:1" id="path842"/>
        </g>
        <g id="g844" transform="translate(592.0171,253.6195)">
          <path d="M 0,0 -43.938,-4.684" style="fill:none;stroke:#474777;stroke-width:1;stroke-linecap:butt;stroke-linejoin:miter;stroke-miterlimit:10;stroke-dasharray:none;stroke-opacity:1" id="path846"/>
        </g>
        <g id="g848" transform="translate(679.2173,282.5208)">
          <path d="m 0,0 c -4.895,-3.869 -8.953,-9.811 -11.384,-14.165 -5.049,-9.042 -7.837,-19.284 -10.729,-29.163 -3.318,-11.329 -5.813,-22.899 -7.458,-34.589 -1.625,-11.544 -3.102,-23.407 0.416,-34.761 0.697,-2.249 2.566,-5.859 5.439,-4.342 3.217,1.698 5.363,7.779 6.826,10.825 1.646,3.427 3.045,6.957 4.626,10.412 8.376,18.31 16.753,36.621 25.13,54.932 4.033,8.815 8.136,17.913 8.535,27.6 0.153,3.708 -0.277,7.537 -2.008,10.82 C 17.661,0.853 14.46,3.511 10.767,3.882 6.96,4.266 3.291,2.601 0,0" style="fill:#008d6b;fill-opacity:1;fill-rule:nonzero;stroke:none" id="path850"/>
        </g>
        <g id="g852" transform="translate(645.7258,241.6271)">
          <path d="m 0,0 c -0.885,15.337 -3.244,30.915 -9.701,44.994 -3.6,7.849 -11.831,21.302 -22.469,16.652 -4.281,-1.872 -5.499,-7.33 -5.623,-12.001 -0.207,-7.761 1.041,-15.487 2.611,-23.091 2.471,-11.969 5.749,-23.756 9.219,-35.475 4.321,-14.592 8.974,-29.167 15.809,-42.765 0.886,-1.762 2.203,-3.755 4.175,-3.72 1.283,0.023 2.385,0.961 3.09,2.033 1.429,2.174 1.646,4.901 1.818,7.497 C -0.056,-30.603 0.882,-15.281 0,0" style="fill:#008d6b;fill-opacity:1;fill-rule:nonzero;stroke:none" id="path854"/>
        </g>
        <g id="g856" transform="translate(619.7924,209.6735)">
          <path d="m 0,0 c -3.158,12.387 -6.996,24.688 -13.109,35.326 -6.114,10.638 -14.73,19.572 -25.015,23.124 -2.303,0.795 -4.892,1.281 -6.998,-0.099 -3.089,-2.024 -3.755,-7.082 -3.306,-11.303 0.689,-6.489 3.099,-12.501 5.548,-18.331 6.939,-16.522 14.485,-32.708 23.196,-47.962 3.823,-6.694 8.395,-17.102 13.954,-21.817 5.739,-4.868 9.2,2.347 9.725,8.583 C 4.92,-21.5 2.655,-10.413 0,0" style="fill:#00b18b;fill-opacity:1;fill-rule:nonzero;stroke:none" id="path858"/>
        </g>
        <g id="g860" transform="translate(579.9723,258.4756)">
          <path d="M 0,0 C 24.866,-37.236 41.655,-82.327 48.24,-129.565" style="fill:none;stroke:#000000;stroke-width:1;stroke-linecap:butt;stroke-linejoin:miter;stroke-miterlimit:10;stroke-dasharray:none;stroke-opacity:1" id="path862"/>
        </g>
        <g id="g864" transform="translate(618.8138,294.3437)">
          <path d="M 0,0 C 21.201,-58.821 27.29,-128.654 21.187,-190.881" style="fill:none;stroke:#000000;stroke-width:1;stroke-linecap:butt;stroke-linejoin:miter;stroke-miterlimit:10;stroke-dasharray:none;stroke-opacity:1" id="path866"/>
        </g>
        <g id="g868" transform="translate(683.1683,266.3973)">
          <path d="m 0,0 c -5.247,-10.187 -10.24,-20.53 -14.224,-31.274 -14.537,-39.195 -15.129,-81.974 -15.548,-123.775" style="fill:none;stroke:#000000;stroke-width:1;stroke-linecap:butt;stroke-linejoin:miter;stroke-miterlimit:10;stroke-dasharray:none;stroke-opacity:1" id="path870"/>
        </g>
        <g id="g872" transform="translate(674.7711,212.4663)">
          <path d="m 0,0 c -4.281,-7.398 -7.367,-15.774 -9.468,-24.065 -2.086,-8.233 -3.415,-16.687 -3.968,-25.188 -0.187,-2.883 -1.229,-7.835 0.419,-10.199 1.612,-2.31 4.928,-1.869 6.919,-0.362 1.715,1.299 2.904,3.27 4.047,5.189 8.232,13.819 16.37,27.756 25.799,40.642 5.501,7.517 24.583,24.457 12.651,34.832 -3.657,3.18 -9.011,2.398 -13.441,0.609 C 13.021,17.447 5.518,9.535 0,0" style="fill:#00b18b;fill-opacity:1;fill-rule:nonzero;stroke:none" id="path874"/>
        </g>
        <g id="g876" transform="translate(705.3338,228.4599)">
          <path d="m 0,0 c -13.788,-12.751 -28.369,-32.058 -34.353,-49.859 -9.055,-26.938 -13.054,-55.565 -11.727,-83.953" style="fill:none;stroke:#000000;stroke-width:1;stroke-linecap:butt;stroke-linejoin:miter;stroke-miterlimit:10;stroke-dasharray:none;stroke-opacity:1" id="path878"/>
        </g>
        <path d="m 685.143,60.409 h -70.132 v 73.382 h 70.132 z" style="fill:#ffffff;fill-opacity:1;fill-rule:nonzero;stroke:none" id="path880"/>
        <g id="g882" transform="translate(685.1432,60.409)">
          <path d="M 0,0 H -70.132" style="fill:none;stroke:#99b4ed;stroke-width:1.5;stroke-linecap:butt;stroke-linejoin:miter;stroke-miterlimit:10;stroke-dasharray:none;stroke-opacity:1" id="path884"/>
        </g>
        <g id="g886" transform="translate(615.0114,133.7907)">
          <path d="M 0,0 V -92.041" style="fill:none;stroke:#99b4ed;stroke-width:1.5;stroke-linecap:butt;stroke-linejoin:miter;stroke-miterlimit:10;stroke-dasharray:none;stroke-opacity:1" id="path888"/>
        </g>
        <g id="g890" transform="translate(664.6748,133.7907)">
          <path d="M 0,0 V -92.041" style="fill:none;stroke:#99b4ed;stroke-width:1.5;stroke-linecap:butt;stroke-linejoin:miter;stroke-miterlimit:10;stroke-dasharray:none;stroke-opacity:1" id="path892"/>
        </g>
        <g id="g894" transform="translate(685.1432,133.7907)" style="">
          <path d="M 0,0 V -92.041" style="fill:none;stroke:#99b4ed;stroke-width:1.5;stroke-linecap:butt;stroke-linejoin:miter;stroke-miterlimit:10;stroke-dasharray:none;stroke-opacity:1" id="path896"/>
        </g>
      </g>
    </g>
  </g>
</svg>